<svg xmlns="http://www.w3.org/2000/svg" xmlns:xlink="http://www.w3.org/1999/xlink" width="2000" zoomAndPan="magnify" viewBox="0 0 1500 1499.999933" height="2000" preserveAspectRatio="xMidYMid meet" version="1.0"><defs><clipPath id="a7fbb6253e"><path d="M 812 405.042969 L 931 405.042969 L 931 883 L 812 883 Z M 812 405.042969 " clip-rule="nonzero"/></clipPath><clipPath id="854efe7652"><path d="M 1084 1346 L 1304.886719 1346 L 1304.886719 1495 L 1084 1495 Z M 1084 1346 " clip-rule="nonzero"/></clipPath></defs><path fill="#9be0aa" d="M 452.058594 1494.289062 C 445.746094 1494.289062 441.351562 1493.164062 439.964844 1491.21875 C 438.667969 1489.359375 439.019531 1485.167969 440.996094 1479.679688 C 442 1476.878906 443.089844 1472.777344 441.144531 1469.058594 C 439.195312 1465.3125 435.570312 1464.25 432.675781 1463.394531 L 432 1463.1875 C 416.925781 1458.671875 401.40625 1457.195312 386.394531 1455.722656 L 384.59375 1455.542969 C 377.21875 1454.835938 370.109375 1453.746094 363.53125 1452.359375 C 362.941406 1452.238281 362.292969 1452.121094 361.640625 1451.972656 C 360.492188 1451.769531 357.777344 1451.238281 357.039062 1450.617188 C 357.070312 1450.585938 356.980469 1450.234375 357.039062 1449.496094 C 357.1875 1446.988281 357.867188 1444.183594 363.648438 1442.207031 C 366.390625 1441.292969 369.34375 1440.851562 372.96875 1440.851562 C 375.949219 1440.851562 379.046875 1441.144531 382.054688 1441.410156 C 383.945312 1441.589844 385.773438 1441.765625 387.632812 1441.882812 C 409.3125 1443.242188 433.886719 1444.773438 455.71875 1455.132812 L 457.429688 1455.957031 L 459.316406 1455.988281 C 460.082031 1456.015625 460.851562 1456.015625 461.585938 1456.015625 C 463.59375 1456.015625 465.597656 1455.988281 467.605469 1455.929688 C 469.523438 1455.898438 471.441406 1455.839844 473.328125 1455.839844 C 476.722656 1455.839844 481.144531 1455.957031 485.246094 1456.902344 C 487.8125 1457.492188 489.996094 1457.789062 491.972656 1457.789062 C 503.859375 1457.789062 505.363281 1448.019531 506.339844 1441.589844 C 506.484375 1440.585938 506.664062 1439.523438 506.839844 1438.460938 C 511.53125 1412.433594 493.832031 1404.910156 480.878906 1399.421875 C 476.984375 1397.769531 473.003906 1396.058594 469.875 1394.082031 C 462.796875 1389.566406 455.390625 1385.613281 448.195312 1381.777344 C 436.570312 1375.582031 424.566406 1369.148438 414.417969 1360.53125 C 407.394531 1354.542969 407.308594 1351.03125 408.25 1348.109375 C 408.636719 1346.988281 409.019531 1346.488281 409.105469 1346.398438 C 409.105469 1346.398438 409.3125 1346.308594 409.816406 1346.308594 C 411.082031 1346.308594 412.914062 1346.78125 414.683594 1347.226562 C 416.277344 1347.636719 417.839844 1348.050781 419.460938 1348.257812 C 436.453125 1350.675781 452.175781 1358.496094 467.398438 1366.078125 C 474.273438 1369.503906 481.324219 1373.015625 488.460938 1376.023438 C 501.675781 1381.628906 514.835938 1388.09375 527.546875 1394.316406 C 536.722656 1398.804688 546.164062 1403.4375 555.632812 1407.773438 L 555.988281 1407.949219 L 565.691406 1393.433594 C 531.707031 1361.59375 494.332031 1336.277344 452.53125 1308.867188 C 446.453125 1304.882812 440.4375 1300.339844 434.652344 1295.941406 C 431.910156 1293.847656 429.195312 1291.8125 426.453125 1289.773438 L 425.894531 1289.363281 L 425.273438 1289.039062 C 412.234375 1282.28125 399.34375 1274.695312 386.863281 1267.351562 C 373.324219 1259.382812 359.371094 1251.179688 345.0625 1243.890625 C 306.507812 1224.269531 264.085938 1207.125 215.441406 1191.488281 C 214.675781 1191.25 212.667969 1190.632812 212.667969 1190.632812 C 202.109375 1187.414062 200.457031 1185.617188 200.898438 1183.019531 C 201.195312 1181.277344 201.429688 1179.921875 205.589844 1179.921875 C 208.039062 1179.921875 210.988281 1180.453125 213.554688 1180.925781 L 213.847656 1180.984375 C 214.941406 1181.191406 215.972656 1181.367188 216.945312 1181.515625 C 243.289062 1185.378906 269.308594 1193.554688 294.472656 1201.460938 L 298.246094 1202.640625 C 330.019531 1212.585938 360.433594 1227.574219 389.875 1242.03125 C 394.742188 1244.421875 399.609375 1246.84375 404.503906 1249.203125 C 437.75 1265.402344 470.496094 1285.289062 504.566406 1310.046875 L 507.105469 1311.875 C 514.363281 1317.070312 521.824219 1322.410156 530.320312 1326.097656 L 549.46875 1334.417969 L 542.121094 1314.855469 C 539.054688 1306.652344 533.949219 1299.925781 529.023438 1293.433594 C 526.753906 1290.453125 524.480469 1287.445312 522.535156 1284.433594 C 520.46875 1281.277344 518.550781 1277.824219 516.664062 1274.519531 C 515.777344 1272.925781 514.894531 1271.390625 514.007812 1269.859375 L 513.652344 1269.238281 L 513.210938 1268.707031 C 505.070312 1258.644531 497.519531 1247.757812 490.230469 1237.195312 C 479.257812 1221.289062 467.871094 1204.855469 453.945312 1190.484375 C 446.1875 1182.488281 438.371094 1174.519531 430.554688 1166.554688 L 482.679688 1210.757812 L 471.617188 1179.742188 C 470.230469 1175.820312 468.195312 1172.367188 466.25 1169.03125 C 463.859375 1164.992188 461.644531 1161.183594 460.96875 1157.199219 L 460.730469 1155.84375 L 460.113281 1154.632812 C 443.328125 1122.148438 428.546875 1088.035156 414.242188 1055.019531 L 408.488281 1041.742188 C 406.953125 1038.230469 405.566406 1034.511719 404.179688 1030.941406 C 403.472656 1029.113281 402.824219 1027.339844 402.144531 1025.601562 L 401.9375 1025.097656 C 396.597656 1013.621094 391.230469 1001.9375 385.863281 990.28125 C 373.882812 964.285156 361.496094 937.375 348.75 910.90625 C 332.261719 876.648438 313.378906 843.101562 295.121094 810.644531 L 294.472656 809.492188 C 290.902344 803.117188 287.304688 796.773438 283.761719 790.371094 C 275.710938 775.972656 267.066406 761.660156 258.6875 747.851562 C 244.234375 723.980469 229.308594 699.3125 217.269531 673.703125 C 216.0625 671.164062 214.527344 669.039062 213.050781 666.972656 C 211.902344 665.378906 210.839844 663.90625 210.101562 662.460938 C 204.941406 652.25 207.328125 649.503906 210.21875 647.585938 C 211.339844 646.851562 212.375 646.464844 213.230469 646.464844 C 215.382812 646.464844 218.039062 648.738281 221.8125 653.84375 C 226.652344 660.363281 231.546875 666.886719 236.417969 673.40625 L 237.125 674.351562 C 253.703125 696.511719 270.8125 719.378906 286.625 742.511719 C 314.382812 783.203125 345.035156 822.59375 374.679688 860.6875 L 377.277344 864.019531 C 398.605469 891.433594 419.816406 918.992188 440.347656 945.667969 L 442.53125 948.527344 C 450.96875 959.476562 459.375 970.421875 467.8125 981.371094 L 532.152344 1060.800781 L 547.519531 1052.71875 L 546.960938 1050.828125 L 546.960938 1050.5625 L 546.664062 1049.855469 L 546.574219 1049.5 L 546.371094 1049.117188 L 546.25 1048.792969 C 523.269531 995.03125 490.261719 948.972656 455.1875 900.460938 C 478.492188 926.398438 501.855469 954.636719 520.085938 986.03125 L 520.5 986.738281 C 521 987.625 521.53125 988.511719 522.0625 989.335938 L 538.257812 983.289062 C 536.429688 970.15625 534.570312 957.054688 532.710938 943.925781 C 528.285156 912.675781 523.742188 880.515625 519.730469 848.855469 C 514.15625 804.828125 508.699219 757.558594 502.59375 700.167969 C 502.472656 698.960938 502.265625 697.632812 502.03125 696.246094 C 501.675781 694.0625 500.792969 688.335938 501.707031 686.890625 C 501.734375 686.890625 501.882812 686.800781 502.265625 686.714844 C 502.769531 686.566406 503.09375 686.566406 503.242188 686.566406 C 504.65625 686.566406 506.484375 691.109375 507.578125 693.824219 C 508.316406 695.683594 509.050781 697.511719 509.964844 699.226562 C 524.597656 726.902344 534.984375 757.117188 545.042969 786.328125 L 548.167969 795.417969 C 558.523438 825.394531 572.859375 853.898438 586.726562 881.488281 C 596.785156 901.464844 607.136719 922.03125 615.8125 942.863281 C 616.550781 944.664062 617.433594 946.226562 618.289062 947.761719 C 619.558594 950.035156 620.679688 951.980469 620.828125 953.898438 L 621.003906 955.964844 L 622.09375 957.734375 C 633.335938 976.265625 643.304688 995.886719 651.800781 1016.011719 L 668.675781 1011.054688 C 667.847656 1006.304688 666.433594 1001.671875 665.105469 997.214844 C 664.074219 993.851562 663.039062 990.398438 662.304688 987.066406 C 661.125 981.636719 659.5 976.351562 657.9375 971.277344 C 657.257812 969.035156 656.550781 966.792969 655.902344 964.519531 L 655.726562 964.019531 L 645.253906 934.570312 C 637.316406 912.207031 629.351562 889.808594 621.328125 867.472656 C 608.644531 832.183594 595.929688 796.921875 583.183594 761.660156 C 583.183594 761.660156 572.566406 732.183594 568.226562 720.175781 C 594.957031 775.324219 619.617188 837.375 644.691406 912.234375 L 644.808594 912.617188 L 662.097656 909.609375 C 661.0625 884.707031 658.4375 859.800781 655.902344 835.722656 C 654.398438 821.441406 652.863281 806.808594 651.652344 792.4375 C 650.472656 778.332031 649.734375 763.902344 649.027344 749.949219 C 648.613281 742.097656 648.230469 734.25 647.757812 726.429688 C 643.71875 659.714844 636.3125 593.679688 625.753906 530.152344 L 625.28125 527.378906 C 621.917969 507.105469 618.4375 486.214844 618.082031 465.5 C 618.082031 464.617188 618.023438 463.730469 617.964844 462.785156 C 617.875 461.222656 617.671875 457.03125 618.40625 456.089844 C 618.40625 456.089844 618.730469 455.851562 619.707031 455.703125 C 619.941406 455.675781 620.175781 455.644531 620.414062 455.644531 C 622.332031 455.644531 623.984375 458.183594 625.695312 463.847656 C 635.605469 496.394531 648.410156 530.210938 665.929688 570.308594 C 677.730469 597.308594 689.589844 624.25 701.449219 651.21875 C 711.332031 673.671875 721.214844 696.125 731.066406 718.609375 C 732.984375 722.976562 734.695312 727.433594 736.554688 732.421875 L 746.761719 759.417969 L 753.457031 731.359375 C 755.375 723.300781 755.402344 715.277344 755.464844 707.546875 C 755.492188 704.386719 755.492188 701.144531 755.640625 698.074219 C 757.792969 655.320312 761.066406 616.695312 765.640625 579.988281 C 765.847656 578.277344 765.996094 576.386719 766.113281 574.441406 C 767.027344 561.164062 768.914062 560.160156 771.453125 560.160156 L 771.804688 560.160156 C 772.632812 560.1875 773.371094 560.367188 773.605469 560.632812 C 774.816406 561.929688 774.550781 567.269531 774.402344 570.78125 C 774.253906 573.730469 774.105469 576.742188 774.429688 579.484375 C 777.144531 602.855469 776.996094 626.875 776.851562 650.097656 C 776.730469 667.328125 776.644531 685.121094 777.675781 702.707031 C 779.417969 731.976562 781.925781 761.601562 784.371094 790.253906 C 786.171875 811.441406 788.03125 833.332031 789.566406 854.992188 C 790.15625 863.402344 790.921875 871.871094 791.660156 880.074219 C 793.398438 899.429688 795.199219 919.433594 794.84375 939.144531 L 812.542969 939.648438 C 813.429688 918.253906 814.136719 896.804688 814.816406 876.058594 C 815.171875 865.113281 815.523438 854.164062 815.90625 843.21875 C 815.9375 842.453125 815.964844 841.65625 815.964844 840.859375 C 816.054688 836.667969 816.113281 833.214844 817.5 830.324219 L 818.445312 828.40625 L 818.386719 826.28125 C 817.351562 778.65625 826.351562 730.738281 834.285156 688.484375 C 846.085938 625.722656 859.242188 570.367188 874.492188 519.261719 C 884.230469 486.6875 894.289062 452.988281 908.242188 421.507812 C 908.566406 420.769531 908.921875 420.058594 909.273438 419.324219 C 910.425781 416.902344 911.722656 414.1875 912.429688 411.089844 L 922.636719 411.089844 C 922.371094 412.359375 922.195312 413.6875 922.195312 415.074219 C 922.195312 449.566406 919.1875 484.5625 916.296875 518.40625 C 914.878906 534.753906 913.433594 551.660156 912.34375 568.363281 C 910.984375 588.839844 909.835938 609.613281 908.683594 629.707031 C 906.207031 673.847656 903.640625 719.4375 899.007812 764.082031 C 898.832031 765.761719 898.625 767.445312 898.449219 769.125 C 897.738281 775.207031 897.003906 781.488281 897.238281 788.011719 L 914.820312 789.015625 L 915.320312 785.796875 C 920.484375 752.367188 925.648438 718.90625 930.867188 685.476562 C 931.164062 683.496094 931.546875 681.433594 932.226562 679.957031 C 932.84375 678.601562 933.347656 677.242188 933.757812 676.03125 C 934.320312 674.46875 935.292969 671.664062 936 671.074219 C 936.03125 671.074219 936.179688 671.046875 936.382812 671.046875 C 936.5625 671.046875 936.972656 671.074219 937.5625 671.195312 C 938.863281 671.488281 939.804688 671.695312 939.539062 679.101562 L 939.511719 679.925781 C 938.890625 697.660156 938.15625 715.394531 937.445312 733.097656 C 936.148438 764.90625 934.820312 797.660156 934.054688 829.941406 C 933.226562 865.585938 929.660156 901.699219 926.207031 936.609375 L 926.089844 937.847656 L 942.960938 942.363281 C 953.316406 919.109375 958.539062 894.886719 962.992188 872.046875 C 973.257812 819.375 979.691406 764.199219 982.136719 708.019531 C 982.550781 698.636719 982.699219 689.132812 982.847656 679.925781 C 983.171875 660.835938 983.464844 641.15625 986.03125 622.09375 C 986.445312 619.023438 986.886719 615.957031 987.359375 612.859375 C 988.1875 607.28125 989.042969 601.527344 989.660156 595.683594 C 990.339844 589.074219 992.875 589.015625 994.378906 588.988281 L 994.46875 588.988281 C 994.675781 589.785156 994.824219 591.054688 994.910156 591.789062 C 995.058594 593 995.207031 594.121094 995.414062 595.183594 C 1000.960938 621.738281 1000.929688 649.359375 1000.929688 676.03125 C 1000.929688 691.582031 1000.898438 707.632812 1001.960938 723.507812 C 1004.585938 762.636719 1008.039062 802.292969 1011.371094 840.621094 L 1012.140625 849.621094 C 1014.175781 872.960938 1012.109375 896.773438 1010.132812 919.789062 L 1009.574219 926.429688 C 1006.03125 968.238281 994.144531 1008.957031 983.289062 1043.835938 L 982.964844 1044.898438 C 982.730469 1045.753906 982.078125 1047.847656 981.667969 1048.085938 L 978.628906 1049.648438 L 977.417969 1052.835938 C 970.691406 1070.539062 965.175781 1089.953125 960.542969 1112.113281 L 960.367188 1112.910156 L 960.339844 1113.738281 C 960.074219 1126.453125 959.542969 1137.875 955.824219 1148.96875 L 955.472656 1149.941406 C 954.410156 1152.863281 953.789062 1155.046875 953.789062 1157.378906 L 953.582031 1186.355469 L 979.632812 1148.261719 L 979.984375 1147.375 C 993.464844 1114.328125 1009.308594 1081.632812 1024.648438 1050.03125 C 1032.523438 1033.773438 1040.695312 1016.953125 1048.453125 1000.222656 C 1062.523438 969.890625 1075.683594 942.804688 1094.148438 918.3125 C 1095.003906 917.191406 1095.832031 916.042969 1096.65625 914.890625 C 1098.632812 912.117188 1100.492188 909.519531 1102.644531 907.425781 C 1103.648438 906.453125 1104.53125 905.332031 1105.386719 904.296875 C 1106.007812 903.5 1107.097656 902.171875 1107.777344 901.582031 C 1107.835938 901.613281 1107.925781 901.671875 1108.011719 901.761719 C 1109.253906 902.617188 1108.957031 905.332031 1107.15625 909.785156 C 1102.554688 921.203125 1098.160156 932.890625 1093.882812 944.160156 C 1085.445312 966.527344 1076.683594 989.632812 1066.210938 1011.496094 C 1060.546875 1023.296875 1055.738281 1035.632812 1051.078125 1047.554688 C 1048.867188 1053.25 1046.652344 1058.882812 1044.351562 1064.488281 C 1044.027344 1065.285156 1043.820312 1065.964844 1043.675781 1066.496094 L 1037.214844 1091.695312 L 1057.714844 1075.671875 C 1079.839844 1058.351562 1098.574219 1038.582031 1118.398438 1017.632812 C 1127.425781 1008.101562 1136.65625 998.335938 1146.246094 988.863281 C 1146.246094 988.894531 1146.214844 988.921875 1146.214844 988.953125 C 1145.800781 990.339844 1145.417969 991.667969 1145.152344 992.9375 L 1144.386719 996.652344 L 1146.570312 999.78125 C 1147.808594 1001.550781 1148.839844 1004 1147.367188 1008.929688 C 1138.132812 1039.617188 1128.957031 1070.332031 1119.8125 1101.019531 L 1111.023438 1130.496094 L 1106.773438 1159.621094 C 1102.527344 1188.625 1098.132812 1218.605469 1094.089844 1248.347656 C 1093.941406 1249.351562 1093.675781 1250.558594 1093.410156 1251.710938 C 1092.585938 1255.191406 1091.582031 1259.53125 1092.878906 1264.046875 L 1098.542969 1283.578125 L 1108.988281 1266.140625 C 1141.464844 1211.90625 1169.3125 1172.398438 1199.34375 1138.019531 C 1208.871094 1127.132812 1216.984375 1115.007812 1224.863281 1103.292969 C 1228.84375 1097.332031 1232.972656 1091.222656 1237.191406 1085.382812 C 1242.710938 1077.710938 1248.3125 1070.125 1253.949219 1062.542969 C 1259.433594 1055.136719 1264.832031 1047.820312 1270.144531 1040.472656 C 1271.292969 1038.878906 1273.242188 1036.191406 1274.507812 1036.191406 C 1274.65625 1036.191406 1274.953125 1036.222656 1275.453125 1036.371094 C 1275.75 1036.457031 1275.957031 1036.578125 1276.074219 1036.636719 C 1276.28125 1037.699219 1275.691406 1040.117188 1275.484375 1041.089844 L 1273.0625 1051.800781 C 1264.273438 1090.871094 1255.1875 1131.234375 1245.453125 1170.714844 C 1232.796875 1222.027344 1208.519531 1268.265625 1180.433594 1319.105469 C 1178.253906 1323.058594 1176.15625 1326.835938 1172.792969 1328.578125 L 1172.085938 1328.929688 L 1171.46875 1329.433594 C 1167.011719 1332.886719 1164.152344 1337.132812 1162.144531 1340.46875 L 1148.515625 1363.128906 L 1173.03125 1353.246094 C 1179.34375 1350.707031 1184.210938 1346.515625 1188.929688 1342.445312 C 1190.964844 1340.675781 1193.089844 1338.875 1195.15625 1337.339844 C 1200.613281 1333.328125 1204.921875 1331.378906 1208.28125 1331.378906 C 1210.289062 1331.378906 1213.535156 1332 1218.253906 1337.398438 L 1224.863281 1344.894531 L 1231.5 1337.429688 C 1232.886719 1335.863281 1234.214844 1334.273438 1235.480469 1332.679688 C 1230.140625 1340.910156 1224.332031 1349.644531 1218.609375 1358.261719 C 1198.84375 1388.003906 1186.6875 1406.621094 1184.59375 1414.382812 L 1183.53125 1418.308594 L 1185.832031 1421.671875 C 1189.285156 1426.746094 1193.738281 1429.3125 1199.078125 1429.3125 C 1200.050781 1429.3125 1201.027344 1429.226562 1202.027344 1429.046875 L 1204.65625 1428.574219 L 1206.601562 1426.714844 C 1211.644531 1421.90625 1216.632812 1417.007812 1221.617188 1412.140625 L 1221.972656 1411.816406 C 1241.648438 1392.546875 1262 1372.601562 1285.21875 1357.050781 C 1285.925781 1356.578125 1286.632812 1356.046875 1287.34375 1355.546875 C 1288.523438 1354.691406 1289.523438 1353.953125 1290.378906 1353.570312 C 1292.503906 1352.65625 1293.980469 1352.449219 1294.804688 1352.449219 C 1295.925781 1352.449219 1297.105469 1352.625 1298.34375 1354.808594 C 1298.492188 1355.074219 1298.582031 1355.28125 1298.640625 1355.398438 C 1298.019531 1356.285156 1296.015625 1357.671875 1295.101562 1358.289062 L 1294.421875 1358.761719 C 1278.90625 1369.472656 1261.351562 1381.601562 1251.027344 1401.339844 C 1250.675781 1402.019531 1250.261719 1402.667969 1249.847656 1403.289062 C 1248.226562 1405.855469 1245.984375 1409.335938 1247.046875 1413.761719 C 1248.195312 1418.511719 1252.652344 1421.140625 1254.097656 1422.023438 C 1254.890625 1422.496094 1255.304688 1423.027344 1255.453125 1423.855469 C 1255.6875 1425.0625 1255.453125 1427.21875 1253.890625 1429.402344 L 1253.300781 1430.226562 C 1247.753906 1437.929688 1242 1445.894531 1234.921875 1450.527344 C 1225.6875 1456.546875 1219.109375 1463.777344 1213.621094 1473.988281 L 1208.136719 1484.136719 L 1219.375 1486.792969 C 1220.054688 1486.96875 1220.761719 1487.117188 1221.46875 1487.265625 C 1196.039062 1488.238281 1170.050781 1489.003906 1144.828125 1489.003906 C 1126.390625 1489.003906 1109.519531 1488.621094 1093.234375 1487.824219 L 1092.734375 1487.796875 L 1092.261719 1487.824219 C 1077.1875 1488.738281 1061.34375 1489.210938 1045.207031 1489.210938 C 1030.457031 1489.210938 1014.824219 1488.828125 998.71875 1488.03125 L 998.273438 1488.03125 L 945.558594 1488.0625 C 942.695312 1487.882812 939.984375 1487.796875 937.09375 1487.796875 C 928.066406 1487.796875 919.066406 1488.652344 910.367188 1489.476562 C 901.929688 1490.273438 893.226562 1491.101562 884.761719 1491.101562 C 880.363281 1491.101562 876.351562 1490.894531 872.488281 1490.453125 L 871.925781 1490.390625 L 815.4375 1490.953125 L 800.507812 1490.863281 L 800.273438 1490.863281 C 766.378906 1492.398438 726.996094 1494.023438 688.203125 1494.023438 C 675.695312 1494.023438 663.511719 1493.84375 652.035156 1493.519531 C 651.917969 1493.492188 651.152344 1493.136719 650.648438 1492.902344 L 649.53125 1492.398438 L 647.40625 1491.484375 L 645.105469 1491.71875 C 635.839844 1492.722656 625.929688 1493.195312 613.921875 1493.195312 C 605.425781 1493.195312 596.753906 1492.960938 588.347656 1492.722656 C 579.703125 1492.488281 570.941406 1492.25 562.269531 1492.25 C 556.164062 1492.25 550.707031 1492.371094 545.511719 1492.605469 C 527.3125 1493.429688 508.699219 1493.578125 490.703125 1493.726562 C 478.992188 1493.816406 465.894531 1493.933594 453.328125 1494.226562 C 453.089844 1494.289062 452.558594 1494.289062 452.058594 1494.289062 Z M 795.230469 953.542969 L 795.316406 956.023438 L 812.988281 956.289062 C 813.074219 955.109375 813.015625 953.898438 812.871094 952.304688 Z M 304.589844 1068.828125 C 300.578125 1066.203125 298.632812 1060.890625 296.390625 1054.722656 C 301.136719 1060.535156 305.886719 1066.496094 310.253906 1072.574219 C 308.367188 1071.277344 306.476562 1070.039062 304.589844 1068.828125 Z M 304.589844 1068.828125 " fill-opacity="1" fill-rule="nonzero"/><g clip-path="url(#a7fbb6253e)"><path fill="#ced47d" d="M 930.75 405.1875 C 929.894531 408.492188 928.332031 411.769531 928.332031 415.074219 C 928.332031 466.503906 921.8125 517.550781 918.449219 568.746094 C 914.140625 634.042969 911.871094 699.519531 905.113281 764.699219 C 903.789062 777.417969 901.101562 790.875 906.855469 803.589844 C 914.464844 816.839844 909.097656 828.90625 903.492188 840.976562 C 898.507812 844.898438 896.972656 839.914062 894.289062 837.464844 C 886.796875 830.589844 882.785156 831.472656 880.363281 841.417969 C 877.917969 851.390625 877.238281 861.75 875.585938 871.929688 C 874.789062 876.796875 873.964844 882.785156 867.945312 882.90625 C 862.3125 882.992188 862.664062 876.855469 861.601562 872.8125 C 858.832031 862.28125 858.769531 851.449219 858.652344 840.652344 C 858.625 837.699219 858.476562 834.308594 855.613281 832.800781 C 851.75 830.765625 849.359375 834.101562 846.851562 836.34375 C 845.378906 837.640625 847.238281 836.046875 845.851562 837.40625 C 829.800781 853.25 824.285156 852.070312 818.945312 830 C 817.441406 823.832031 814.492188 828.523438 812.78125 827.136719 C 811.660156 779.808594 820.097656 733.511719 828.769531 687.390625 C 839.507812 630.179688 852.457031 573.40625 869.125 517.582031 C 879.066406 484.296875 889.007812 450.984375 903.109375 419.144531 C 905.085938 414.71875 907.828125 410.441406 907.179688 405.21875 C 915.027344 405.1875 922.902344 405.1875 930.75 405.1875 Z M 930.75 405.1875 " fill-opacity="1" fill-rule="nonzero"/></g><path fill="#b1b470" d="M 662.894531 1027.3125 C 666.078125 1013.472656 659.53125 1001.167969 656.726562 988.304688 C 655.074219 980.808594 652.566406 973.519531 650.445312 966.113281 C 648.144531 951.65625 652.804688 938.289062 656.847656 924.835938 C 656.316406 880.601562 649.675781 836.84375 646.019531 792.878906 C 644.191406 770.867188 643.453125 748.796875 642.097656 726.753906 C 638.113281 661.160156 630.914062 595.949219 620.148438 531.09375 C 616.550781 509.40625 612.773438 487.660156 612.417969 465.589844 C 612.332031 459.394531 610.5 451.21875 619.027344 449.890625 C 626.726562 448.683594 629.734375 456.058594 631.59375 462.167969 C 642.628906 498.3125 656.460938 533.394531 671.59375 567.976562 C 693.21875 617.460938 715.078125 666.828125 736.730469 716.28125 C 739.859375 723.390625 742.425781 730.738281 745.257812 737.996094 C 754.285156 746.761719 755.050781 759.09375 758.175781 770.101562 C 766.464844 799.164062 774.402344 828.347656 781.421875 857.765625 C 782.660156 862.929688 784.371094 868.179688 781.660156 873.460938 C 765.492188 869.804688 758.738281 878.449219 755.257812 892.761719 C 753.839844 898.574219 751.65625 906.363281 743.191406 904.886719 C 735.875 903.589844 732.039062 897.363281 730.121094 890.398438 C 728.53125 884.585938 729.53125 878.746094 730.535156 872.933594 C 731.273438 868.566406 732.835938 862.898438 729.238281 860.332031 C 719.121094 853.132812 719.445312 843.335938 721.332031 831.800781 C 716.167969 838.113281 716.289062 838.085938 717.351562 844.015625 C 719.679688 856.96875 724.371094 870.71875 705.992188 876.621094 C 702.953125 877.59375 702.835938 881.195312 702.15625 884.054688 C 695.726562 911.554688 696.167969 939.085938 700.5625 966.882812 C 702.214844 977.296875 705.433594 988.066406 700.535156 998.632812 C 697.910156 1005.003906 701.417969 1010.078125 704.074219 1015.363281 C 706.613281 1019.816406 709.207031 1024.273438 709.796875 1029.523438 C 709.5625 1049 697.230469 1064.164062 690.976562 1081.484375 C 689.058594 1086.828125 682.921875 1086.796875 680.742188 1081.839844 C 673.011719 1064.226562 664.132812 1046.992188 662.894531 1027.3125 Z M 662.894531 1027.3125 " fill-opacity="1" fill-rule="nonzero"/><path fill="#304c50" d="M 962.90625 1162.660156 C 966.828125 1156.933594 970.753906 1151.179688 974.675781 1145.457031 C 994.617188 1119.84375 1019.398438 1099.101562 1042.96875 1077.148438 C 1045.5625 1074.730469 1048.570312 1073.285156 1052.082031 1072.78125 C 1088.808594 1044.660156 1117.425781 1007.867188 1151.878906 975.4375 C 1155.832031 984.644531 1151.585938 989.839844 1150.964844 995.472656 C 1152.941406 1004.058594 1148.546875 1010.433594 1143.707031 1016.71875 C 1124.121094 1042.242188 1105.417969 1068.414062 1086.035156 1094.085938 C 1061.550781 1126.867188 1035.769531 1158.765625 1014.914062 1194.144531 C 1012.433594 1198.363281 1010.253906 1202.90625 1006.976562 1206.417969 C 989.335938 1225.363281 979.425781 1248.730469 968.894531 1271.777344 C 962.226562 1295.351562 956.5625 1319.253906 948.566406 1342.445312 C 947.328125 1345.925781 946.265625 1349.4375 945.292969 1353.007812 C 931.28125 1394.9375 912.078125 1434.773438 896.117188 1475.90625 C 891.605469 1487.53125 878.832031 1487.882812 870.953125 1494.878906 C 863.371094 1491.542969 865.820312 1485.230469 866.707031 1479.679688 C 867.855469 1472.421875 871.21875 1465.605469 872.191406 1458.378906 C 874.257812 1442.945312 882.664062 1428.78125 867.621094 1412.40625 C 854.375 1397.976562 851.484375 1376.140625 854.109375 1355.371094 C 865.792969 1325.683594 876.558594 1295.648438 887.859375 1265.816406 C 889.066406 1262.597656 890.335938 1259.324219 892.871094 1256.875 C 897.859375 1252.125 901.488281 1253.15625 903.550781 1259.707031 C 903.847656 1260.652344 903.847656 1261.65625 903.964844 1262.628906 C 904.878906 1270.125 903.640625 1281.71875 913.699219 1280.597656 C 923.019531 1279.566406 920.425781 1267.851562 920.425781 1260.386719 C 920.425781 1233.890625 920.78125 1207.449219 922.460938 1180.984375 C 922.816406 1175.316406 924.730469 1170.507812 927.5625 1165.875 C 928.832031 1163.988281 930.484375 1162.570312 932.609375 1161.773438 C 940.78125 1160.535156 942.402344 1165.992188 943.109375 1172.21875 C 943.757812 1178.03125 942.136719 1183.726562 941.132812 1191.78125 C 949.039062 1180.746094 951.695312 1168.296875 962.90625 1162.660156 Z M 962.90625 1162.660156 " fill-opacity="1" fill-rule="nonzero"/><path fill="#bfbe60" d="M 930.660156 954.253906 C 945.324219 928.34375 951.871094 899.636719 957.449219 870.953125 C 967.949219 817.105469 974.113281 762.605469 976.476562 707.8125 C 977.714844 678.984375 976.5625 650.066406 980.429688 621.355469 C 981.609375 612.621094 983.113281 603.917969 984.027344 595.125 C 984.734375 588.425781 987.539062 583.292969 994.46875 583.144531 C 1001.402344 582.96875 1000.457031 589.339844 1001.429688 594.03125 C 1010.339844 636.757812 1005.179688 680.164062 1008.097656 723.15625 C 1010.929688 765.203125 1014.648438 807.160156 1018.277344 849.148438 C 1020.546875 875.234375 1017.890625 901.140625 1015.710938 926.988281 C 1012.257812 967.679688 1001.253906 1006.832031 989.1875 1045.664062 C 988.246094 1048.734375 987.539062 1052.511719 983.644531 1053.808594 C 978.1875 1053.867188 972.523438 1053.542969 968.363281 1049.914062 C 959.542969 1042.210938 950.101562 1038.703125 937.949219 1038.96875 C 927.359375 1039.171875 919.953125 1026.542969 918.152344 1010.226562 C 918.242188 1007.925781 918.65625 1005.652344 919.273438 1003.410156 C 923.316406 992.347656 925.675781 981.046875 924.644531 969.125 C 924.113281 963.3125 923.671875 957.171875 930.660156 954.253906 Z M 930.660156 954.253906 " fill-opacity="1" fill-rule="nonzero"/><path fill="#d9cc5c" d="M 396.804688 1027.785156 C 379.105469 989.660156 361.820312 951.332031 343.558594 913.472656 C 323.792969 872.429688 300.960938 833.007812 278.75 793.261719 C 256.828125 754.078125 231.222656 716.988281 212.078125 676.210938 C 210.21875 672.285156 206.976562 669.007812 205 665.113281 C 201.046875 657.265625 198.507812 648.382812 207.125 642.660156 C 215.707031 636.964844 221.992188 643.929688 226.710938 650.300781 C 248.570312 679.78125 270.988281 708.875 291.640625 739.175781 C 320.105469 780.898438 351.109375 820.585938 382.085938 860.390625 C 412.441406 899.398438 442.472656 938.644531 472.648438 977.769531 C 463.0625 986.03125 453.945312 995.179688 439.257812 990.222656 C 432.058594 987.800781 432.207031 992.699219 433.328125 997.507812 C 435.953125 1008.929688 440.761719 1019.699219 443.5625 1031.058594 C 444.773438 1035.988281 448.164062 1042.625 442.558594 1045.8125 C 436.160156 1049.441406 432.265625 1042.863281 428.371094 1038.640625 C 427.722656 1037.933594 427.21875 1037.050781 426.660156 1036.28125 C 414.710938 1019.699219 414.710938 1019.699219 396.804688 1027.785156 Z M 396.804688 1027.785156 " fill-opacity="1" fill-rule="nonzero"/><path fill="#375b6a" d="M 1101.789062 1267.027344 C 1129.546875 1220.375 1159.253906 1175.199219 1195.125 1134.125 C 1209.167969 1118.046875 1220.082031 1099.277344 1232.621094 1081.898438 C 1243.476562 1066.851562 1254.714844 1052.039062 1265.570312 1036.988281 C 1268.640625 1032.742188 1271.914062 1028.875 1277.546875 1030.765625 C 1284.214844 1032.976562 1282.179688 1039.144531 1281.207031 1043.394531 C 1271.53125 1086.355469 1261.941406 1129.347656 1251.410156 1172.101562 C 1238.195312 1225.746094 1212.296875 1274.019531 1185.835938 1321.9375 C 1183.328125 1326.480469 1180.613281 1331.351562 1175.539062 1333.917969 C 1169.402344 1331.351562 1166.363281 1336.21875 1163.207031 1339.582031 C 1150.789062 1352.949219 1135.800781 1363.484375 1123.03125 1376.4375 C 1120.609375 1378.886719 1118.074219 1381.21875 1114.917969 1382.75 C 1111.640625 1384.34375 1108.25 1384.964844 1105.269531 1382.339844 C 1102.113281 1379.566406 1102.96875 1376.023438 1104.355469 1372.808594 C 1108.101562 1364.101562 1114.535156 1357.316406 1120.609375 1350.175781 C 1144.238281 1322.558594 1171.617188 1298.363281 1193.535156 1269.179688 C 1185.066406 1279.773438 1175.449219 1289.273438 1165.242188 1298.125 C 1161.675781 1301.222656 1156.894531 1305.324219 1152.261719 1301.28125 C 1148.222656 1297.769531 1151.671875 1292.875 1153.621094 1289.125 C 1164.386719 1268.648438 1178.105469 1250 1190.554688 1230.554688 C 1212.089844 1196.945312 1230.734375 1161.863281 1243.59375 1123.917969 C 1244.300781 1121.820312 1245.894531 1119.519531 1243.0625 1115.949219 C 1230.023438 1138.375 1218.757812 1161.09375 1205.65625 1182.78125 C 1175.953125 1231.972656 1151.230469 1284.140625 1117.570312 1330.964844 C 1115.269531 1334.152344 1113.027344 1337.398438 1110.375 1340.289062 C 1107.128906 1343.800781 1103.796875 1349.023438 1098.25 1345.777344 C 1092.617188 1342.472656 1095.417969 1337.015625 1097.363281 1332.589844 C 1101.703125 1322.675781 1108.25 1313.910156 1112.234375 1303.820312 C 1112.761719 1302.492188 1113.765625 1301.339844 1113.648438 1300.339844 C 1104.5625 1317.570312 1093.675781 1334.269531 1082.703125 1350.855469 C 1076.007812 1360.945312 1066.863281 1367.730469 1053.734375 1366.550781 C 1051.640625 1361.683594 1054.707031 1358.203125 1056.890625 1354.453125 C 1069.132812 1333.355469 1080.285156 1311.757812 1088.160156 1288.535156 C 1090.84375 1280.511719 1092.96875 1271.480469 1101.789062 1267.027344 Z M 1101.789062 1267.027344 " fill-opacity="1" fill-rule="nonzero"/><path fill="#45605d" d="M 800.953125 1496.765625 C 751.363281 1499.007812 701.773438 1500.867188 652.125 1499.421875 C 650.296875 1499.363281 648.527344 1498.183594 646.726562 1497.53125 C 653.363281 1486.410156 640.503906 1481.835938 638.613281 1473.542969 C 629.46875 1453.921875 616.34375 1436.777344 604.070312 1419.222656 C 591.738281 1401.578125 578.996094 1384.195312 566.429688 1366.699219 C 563.300781 1362.332031 559.792969 1358.082031 560.441406 1352.152344 C 563.566406 1345.632812 568.761719 1348.964844 573.242188 1349.613281 C 587.167969 1351.59375 588.082031 1350.855469 582.535156 1337.339844 C 578.640625 1327.808594 580.148438 1318.988281 583.921875 1310.28125 C 589.054688 1298.449219 596.605469 1297.566406 604.601562 1307.832031 C 612.417969 1317.894531 619.792969 1328.339844 625.902344 1339.523438 C 632.332031 1351.296875 640.855469 1359.882812 654.839844 1361.566406 C 662.332031 1366.640625 665.636719 1375.199219 672.1875 1382.339844 C 664.574219 1363.984375 659 1346.339844 670.710938 1328.398438 C 677.9375 1327.808594 679.175781 1334.066406 681.683594 1338.402344 C 704.105469 1377.5 727.171875 1416.152344 757.261719 1450.085938 C 762.777344 1456.28125 767.527344 1463.1875 771.597656 1470.503906 C 777.351562 1480.890625 782.925781 1491.335938 797.207031 1491.601562 C 799.566406 1491.632812 801.542969 1493.667969 800.953125 1496.765625 Z M 800.953125 1496.765625 " fill-opacity="1" fill-rule="nonzero"/><path fill="#3d5d60" d="M 544.539062 1062.898438 C 543.449219 1059.148438 542.328125 1055.433594 541.238281 1051.683594 C 539.910156 1043.835938 537.222656 1036.339844 535.335938 1028.667969 C 534.570312 1022.148438 531.886719 1012.972656 539.199219 1010.875 C 547.695312 1008.457031 550.707031 1018.84375 555.691406 1024.183594 C 581.148438 1052.246094 587.667969 1089.835938 605.339844 1124.890625 C 607.523438 1117.839844 604.957031 1114.296875 603.390625 1110.699219 C 601.621094 1106.65625 599.5 1102.761719 597.875 1098.660156 C 596.253906 1094.558594 594.453125 1090.484375 593.421875 1086.207031 C 592.714844 1083.316406 592.183594 1080.21875 594.808594 1078.003906 C 598.082031 1075.261719 601.328125 1076.941406 604.246094 1078.859375 C 608.820312 1081.871094 612.300781 1085.972656 614.898438 1090.691406 C 614.808594 1087.566406 613.214844 1084.496094 613.273438 1081.160156 C 613.304688 1078.121094 613.660156 1075.140625 616.875 1073.785156 C 620.5625 1072.222656 623.601562 1073.429688 625.839844 1076.589844 C 628.113281 1079.773438 629.234375 1083.699219 631.800781 1086.710938 C 636.785156 1092.523438 642.273438 1095.914062 649.292969 1089.570312 C 651.121094 1087.917969 652.953125 1086.179688 655.460938 1085.765625 C 658.054688 1085.351562 660.535156 1086.324219 662.097656 1088.214844 C 671.566406 1099.457031 692.070312 1091.371094 698.027344 1109.871094 C 702.039062 1122.351562 708.972656 1133.949219 714.960938 1145.78125 C 717.96875 1151.710938 721.773438 1155.164062 728.738281 1153.808594 C 729.679688 1154.191406 730.832031 1154.605469 731.125 1155.429688 C 741.773438 1184.496094 750.890625 1213.941406 751.628906 1245.191406 C 751.863281 1254.839844 746.996094 1262.273438 737.851562 1265.933594 C 729.53125 1269.238281 723.425781 1264.457031 716.316406 1260.417969 C 694.042969 1247.789062 679.53125 1229.375 669.53125 1206.183594 C 656.667969 1176.378906 655.902344 1175.230469 656.90625 1145.488281 C 642.804688 1146.636719 639.914062 1149.441406 644.601562 1161.921875 C 653.570312 1185.675781 653.777344 1212.792969 672.125 1233.09375 C 676.316406 1237.726562 678.96875 1244.984375 671.449219 1249.734375 C 664.574219 1254.070312 659.292969 1249.703125 654.929688 1244.628906 C 649.441406 1238.257812 645.578125 1230.820312 641.890625 1223.324219 C 631.503906 1202.167969 620.828125 1181.160156 610.148438 1160.121094 C 608.230469 1156.34375 606.578125 1150.855469 601.179688 1151.890625 C 596.84375 1152.714844 596.84375 1157.878906 596.015625 1161.65625 C 595.160156 1165.464844 594.984375 1169.503906 592.066406 1172.574219 C 585.75 1174.195312 582.917969 1169.5625 580.824219 1165.34375 C 567.933594 1139.4375 554.628906 1113.679688 546.429688 1085.707031 C 544.1875 1078.152344 544.097656 1070.570312 544.539062 1062.898438 Z M 544.539062 1062.898438 " fill-opacity="1" fill-rule="nonzero"/><path fill="#c5bf5c" d="M 396.804688 1027.785156 C 409.636719 1011.910156 417.160156 1012.261719 427.074219 1029.523438 C 430.496094 1035.457031 433.53125 1041.503906 441.644531 1044.984375 C 441.203125 1027.398438 431.734375 1013.117188 429.226562 997.15625 C 428.605469 993.144531 424.0625 988.6875 428.726562 984.96875 C 432.765625 981.753906 437.308594 984.289062 441.027344 986.5625 C 447.042969 990.25 451.675781 988.511719 457.042969 984.761719 C 461.644531 981.546875 465.894531 976.558594 472.648438 977.769531 C 496.308594 1006.953125 519.96875 1036.164062 543.625 1065.347656 C 549.671875 1078.507812 546.25 1089.71875 536.664062 1099.691406 C 533.273438 1103.234375 529.113281 1106.683594 528.667969 1111.730469 C 527.519531 1125.273438 519.40625 1135.335938 512.0625 1145.574219 C 506.605469 1153.1875 504.894531 1160.152344 509.316406 1168.5625 C 510.910156 1171.570312 511.738281 1174.992188 512.355469 1178.355469 C 513.0625 1182.222656 514.007812 1186.382812 510.230469 1189.1875 C 505.511719 1192.667969 501.5 1189.480469 498.578125 1186.441406 C 486.277344 1173.519531 472.855469 1162.542969 455.214844 1157.761719 C 436.039062 1120.699219 419.816406 1082.3125 403.179688 1044.101562 C 400.90625 1038.761719 398.929688 1033.214844 396.804688 1027.785156 Z M 396.804688 1027.785156 " fill-opacity="1" fill-rule="nonzero"/><path fill="#668870" d="M 727.261719 1154.664062 C 720.535156 1167.234375 716.082031 1157.230469 713.457031 1152.363281 C 705.84375 1138.140625 698.882812 1123.535156 692.6875 1108.632812 C 690.269531 1102.847656 688.734375 1099.988281 681.535156 1100.753906 C 676.640625 1101.285156 670.738281 1098.835938 666.34375 1096.0625 C 659.351562 1091.695312 654.632812 1085.824219 647.375 1097.214844 C 643.484375 1103.320312 629.441406 1094.644531 624.335938 1082.875 C 623.070312 1079.980469 624.070312 1074.730469 618.996094 1075.9375 C 613.394531 1077.265625 617.875 1081.457031 617.757812 1084.378906 C 617.550781 1090.21875 622.390625 1095.382812 619.734375 1102.730469 C 611.355469 1095.265625 608.613281 1083.019531 596.136719 1078.179688 C 596.992188 1089.484375 601.742188 1098.128906 606.019531 1106.949219 C 607.730469 1110.492188 609.882812 1113.914062 610.972656 1117.632812 C 612.273438 1122.117188 614.71875 1128.167969 608.199219 1130.144531 C 602.921875 1131.738281 600.855469 1126.1875 599.203125 1122.207031 C 589.761719 1099.632812 580.382812 1077.03125 571.296875 1054.339844 C 567.195312 1044.101562 558.582031 1037.078125 553.390625 1027.695312 C 568.289062 1011.671875 568.199219 1011.703125 558.316406 989.867188 C 554.804688 982.078125 551.179688 974.023438 562.625 969.007812 C 569.171875 966.144531 566.222656 960.804688 565.132812 956.257812 C 560.410156 936.695312 552.238281 918.164062 547.226562 898.691406 C 545.160156 890.636719 538.996094 879.070312 549.820312 875.234375 C 560.441406 871.484375 560.765625 885 564.480469 891.578125 C 569.054688 899.695312 570.941406 909.019531 574.039062 917.78125 C 579.230469 932.476562 587.550781 944.78125 599.203125 954.988281 C 611.769531 939.675781 612.714844 939.648438 626.960938 954.015625 C 641.152344 977.355469 653.128906 1001.789062 662.894531 1027.3125 C 673.632812 1044.21875 676.019531 1064.519531 686.609375 1085.972656 C 690.800781 1063.308594 705.578125 1048.320312 706.464844 1027.871094 C 717.085938 1029.199219 718.941406 1037.964844 717.410156 1045.164062 C 709.796875 1080.894531 725.167969 1113.679688 729.355469 1147.847656 C 729.621094 1150.414062 729.0625 1152.746094 727.261719 1154.664062 Z M 727.261719 1154.664062 " fill-opacity="1" fill-rule="nonzero"/><path fill="#88a172" d="M 626.933594 954.015625 C 626.433594 953.957031 625.902344 954.046875 625.488281 953.839844 C 609.054688 945.402344 609.054688 945.402344 601.859375 964.050781 C 582.890625 948.113281 571.945312 927.726562 564.953125 904.679688 C 562.417969 896.332031 558.90625 888.246094 555.542969 880.132812 C 554.894531 878.566406 552.917969 876.472656 551.589844 876.503906 C 548.878906 876.5625 547.195312 879.246094 547.667969 881.695312 C 548.996094 888.835938 550.558594 896.007812 552.652344 902.96875 C 558.582031 922.621094 564.835938 942.183594 570.914062 961.777344 C 572.859375 968.089844 576.488281 975.410156 563.890625 972.84375 C 558.167969 971.660156 557.3125 975.054688 558.464844 979.921875 C 559.734375 985.265625 562.269531 989.867188 565.21875 994.441406 C 575.691406 1010.757812 571.796875 1021.410156 553.332031 1027.664062 C 549.171875 1022.472656 545.042969 1017.308594 539.378906 1010.226562 C 538.964844 1017.632812 538.671875 1022.707031 538.40625 1027.785156 C 525.691406 1021.558594 532.476562 1010.019531 531.175781 1000.753906 C 530.5 995.976562 535.511719 991.726562 532.945312 986.59375 C 526.605469 940.914062 519.847656 895.328125 514.066406 849.59375 C 507.785156 800.050781 502.207031 750.417969 496.898438 700.789062 C 496.191406 694.089844 492.796875 683.230469 500.851562 680.988281 C 510.230469 678.394531 511.914062 689.902344 515.367188 696.421875 C 531.738281 727.34375 542.5625 760.539062 553.921875 793.46875 C 571.621094 844.722656 600.679688 890.722656 621.417969 940.5625 C 623.304688 945.046875 626.785156 948.824219 626.933594 954.015625 Z M 626.933594 954.015625 " fill-opacity="1" fill-rule="nonzero"/><path fill="#24435a" d="M 1054.089844 1366.757812 C 1080.84375 1358.203125 1088.398438 1332.441406 1102.46875 1312.554688 C 1108.015625 1304.675781 1112.96875 1296.382812 1119.519531 1288.980469 C 1117.335938 1309.191406 1103.558594 1324.769531 1098.542969 1344.1875 C 1110.875 1336.839844 1118.339844 1324.976562 1125.183594 1313.675781 C 1163.679688 1250.03125 1200.613281 1185.4375 1235.835938 1119.902344 C 1236.988281 1117.75 1237.988281 1115.449219 1239.464844 1113.53125 C 1241.53125 1110.816406 1243.710938 1107.953125 1247.960938 1110.019531 C 1252.472656 1112.203125 1250.882812 1115.09375 1249.699219 1118.578125 C 1240.113281 1147.40625 1227.046875 1174.640625 1212.679688 1201.371094 C 1195.097656 1234.09375 1170.996094 1262.746094 1154.210938 1295.914062 C 1153.648438 1297.035156 1153.5625 1298.390625 1152.5 1302.640625 C 1172.117188 1289.773438 1184.417969 1272.867188 1199.964844 1259.441406 C 1194.65625 1277.765625 1181.617188 1290.867188 1169.167969 1303.878906 C 1149.195312 1324.769531 1128.957031 1345.367188 1111.199219 1368.234375 C 1108.457031 1371.746094 1102.617188 1376.554688 1107.601562 1380.566406 C 1112.351562 1384.375 1116.007812 1377.765625 1119.402344 1374.636719 C 1134.179688 1361.035156 1148.753906 1347.226562 1163.53125 1333.652344 C 1167.308594 1330.167969 1171.761719 1324.710938 1175.449219 1334.003906 C 1170.082031 1338.046875 1167.132812 1343.890625 1163.976562 1349.585938 C 1151.96875 1372.953125 1131.199219 1388.296875 1112.792969 1405.796875 C 1104.296875 1411.699219 1097.867188 1419.78125 1090.3125 1426.6875 C 1067.363281 1447.667969 1040.933594 1464.425781 1018.484375 1486.023438 C 1012.964844 1491.335938 1005.472656 1491.984375 998.601562 1494.050781 C 980.871094 1494.050781 963.171875 1494.082031 945.441406 1494.082031 C 944.230469 1486.171875 951.136719 1484.636719 955.648438 1481.570312 C 984.527344 1461.917969 1008.894531 1438.164062 1024.914062 1406.652344 C 1030.902344 1396.679688 1037.15625 1386.851562 1042.820312 1376.671875 C 1045.386719 1372.039062 1047.273438 1366.464844 1054.089844 1366.757812 Z M 1054.089844 1366.757812 " fill-opacity="1" fill-rule="nonzero"/><path fill="#5ca9c5" d="M 1054.089844 1366.757812 C 1045.414062 1380.625 1036.742188 1394.496094 1028.039062 1408.363281 C 1007.15625 1419.488281 992.433594 1438.488281 973.082031 1451.503906 C 968.125 1454.835938 964.144531 1461.0625 956.59375 1458.582031 C 954.320312 1455.457031 954.46875 1452.035156 955.941406 1448.789062 C 970.160156 1417.066406 981.550781 1383.046875 1019.160156 1369.769531 C 1013.378906 1370.742188 1009.398438 1374.695312 1004.734375 1377.320312 C 1000.046875 1379.976562 995.796875 1383.28125 991.84375 1387 C 989.808594 1388.917969 987.804688 1392.105469 984.558594 1390.570312 C 980.78125 1388.800781 981.402344 1384.90625 981.875 1381.484375 C 982.140625 1379.535156 982.609375 1377.585938 983.378906 1375.816406 C 994.585938 1350.765625 1002.730469 1324.417969 1015.386719 1299.953125 C 1025.089844 1281.1875 1040.136719 1267.410156 1058.425781 1256.136719 C 1053.113281 1253.070312 1051.640625 1256.933594 1049.425781 1258.585938 C 1047.097656 1260.328125 1045.148438 1262.660156 1042.730469 1264.3125 C 1040.3125 1265.964844 1037.597656 1268.058594 1034.707031 1266.492188 C 1031.109375 1264.546875 1031.582031 1260.742188 1032.113281 1257.289062 C 1032.496094 1254.867188 1033.230469 1252.476562 1034.382812 1250.324219 C 1051.226562 1218.664062 1062.4375 1184.554688 1077.070312 1151.949219 C 1081.878906 1141.238281 1086.390625 1130.144531 1094.828125 1121.644531 C 1099.488281 1116.953125 1104.503906 1110.34375 1112.292969 1113.796875 C 1120.375 1117.367188 1118.515625 1124.921875 1117.101562 1131.765625 C 1111.40625 1170.890625 1105.566406 1209.960938 1100.226562 1249.144531 C 1099.429688 1254.957031 1095.832031 1261.597656 1101.847656 1267.054688 C 1087.542969 1301.046875 1075.152344 1335.984375 1054.089844 1366.757812 Z M 1054.089844 1366.757812 " fill-opacity="1" fill-rule="nonzero"/><path fill="#2d4452" d="M 562.035156 1352.242188 C 575.988281 1375.078125 593.15625 1395.703125 607.964844 1417.894531 C 619.941406 1435.835938 634.898438 1452.152344 641.683594 1473.308594 C 634.398438 1476.109375 629.617188 1470.886719 624.425781 1467.640625 C 600.53125 1452.710938 575.101562 1441.46875 547.636719 1435.039062 C 541.765625 1433.652344 534.128906 1429.550781 530.46875 1437.101562 C 526.691406 1444.863281 534.128906 1449.320312 539.199219 1453.773438 C 542.152344 1456.371094 545.660156 1458.230469 548.582031 1460.828125 C 551.886719 1463.777344 555.78125 1466.90625 553.683594 1471.921875 C 551.621094 1476.847656 546.664062 1476.730469 542.238281 1476.40625 C 530.378906 1475.492188 519.761719 1469.855469 508.285156 1467.199219 C 494.007812 1463.894531 480.347656 1458.113281 465.6875 1456.074219 C 462.441406 1455.632812 458.667969 1454.867188 458.785156 1450.085938 C 468.078125 1450.320312 477.695312 1449.113281 486.574219 1451.179688 C 500.113281 1454.304688 499.347656 1446.871094 501.058594 1437.398438 C 506.160156 1409.191406 481.382812 1408.394531 466.71875 1399.070312 C 448.3125 1387.324219 427.605469 1379.445312 410.613281 1365.019531 C 404.210938 1359.589844 400.226562 1353.714844 402.675781 1346.25 C 405.804688 1336.691406 414.035156 1341.558594 420.347656 1342.445312 C 446.042969 1346.105469 467.574219 1360.769531 490.820312 1370.625 C 513.625 1380.300781 535.632812 1392.164062 558.289062 1402.492188 C 560.855469 1403.671875 562.832031 1406.089844 565.070312 1407.921875 C 570.292969 1410.84375 577.640625 1406.800781 580.472656 1410.8125 C 577.640625 1408.597656 571.148438 1407.449219 567.046875 1402.816406 C 531.441406 1368.324219 490.585938 1340.851562 449.34375 1313.792969 C 440.199219 1307.804688 431.644531 1300.871094 422.796875 1294.378906 C 424.359375 1283.519531 432.675781 1286.265625 438.222656 1288.183594 C 461.054688 1296.03125 485.15625 1298.363281 508.136719 1305.265625 C 517.695312 1312.054688 527.046875 1319.195312 538.433594 1322.792969 C 549.347656 1330.230469 560.441406 1337.429688 562.035156 1352.242188 Z M 562.035156 1352.242188 " fill-opacity="1" fill-rule="nonzero"/><path fill="#b5b45c" d="M 455.246094 1157.792969 C 468.636719 1155.488281 479.082031 1161.007812 487.722656 1170.480469 C 493.832031 1177.175781 499.375 1184.375 505.453125 1191.695312 C 512.269531 1183.726562 509.464844 1179.007812 507.488281 1176.054688 C 495.070312 1157.496094 508.726562 1145.898438 516.28125 1130.792969 C 524.746094 1113.855469 533.832031 1097.480469 543.300781 1081.191406 C 545.632812 1077.207031 543.625 1070.6875 543.625 1065.347656 C 543.597656 1064.402344 543.921875 1063.574219 544.539062 1062.867188 C 552.210938 1097.066406 566.722656 1128.609375 582.300781 1159.738281 C 584.660156 1164.488281 586.074219 1169.976562 591.121094 1172.988281 C 603.570312 1182.371094 607.996094 1196.414062 612.804688 1210.253906 C 614.1875 1221.554688 611.769531 1232.707031 611.328125 1243.980469 C 610.972656 1252.980469 607.078125 1260.269531 596.195312 1260.152344 C 591.179688 1260.089844 588.082031 1262.511719 585.808594 1266.878906 C 579.820312 1278.328125 571.917969 1275.199219 564.011719 1269.238281 C 554.273438 1261.863281 547.371094 1251.269531 537.253906 1245.160156 C 535.453125 1244.953125 534.746094 1245.515625 534.746094 1246.695312 C 534.777344 1252.597656 541.5625 1260.179688 533.980469 1263.957031 C 526.898438 1267.496094 523.300781 1258.851562 519.199219 1254.574219 C 501.648438 1236.101562 486.78125 1215.300781 469.257812 1196.769531 C 467.546875 1194.96875 466.453125 1192.757812 467.574219 1190.128906 C 468.078125 1177.589844 457.042969 1169.476562 455.246094 1157.792969 Z M 455.246094 1157.792969 " fill-opacity="1" fill-rule="nonzero"/><path fill="#233744" d="M 458.8125 1450.117188 C 477.988281 1454.925781 497.253906 1459.558594 516.367188 1464.632812 C 525.21875 1466.992188 533.773438 1470.503906 542.621094 1472.894531 C 545.542969 1473.691406 550.058594 1474.902344 551.503906 1470.476562 C 552.652344 1466.992188 548.964844 1465.84375 546.695312 1464.132812 C 540.46875 1459.441406 534.214844 1454.71875 528.257812 1449.703125 C 523.125 1445.363281 522.179688 1439.375 524.980469 1433.679688 C 528.109375 1427.367188 533.921875 1427.542969 540.234375 1428.871094 C 569.761719 1435.066406 597.257812 1446.191406 622.949219 1461.890625 C 629.203125 1465.695312 635.457031 1469.53125 641.710938 1473.335938 C 645.398438 1477.824219 649.351562 1482.128906 652.714844 1486.851562 C 657.996094 1494.257812 654.277344 1497.0625 646.726562 1497.5625 C 613.214844 1501.339844 579.617188 1497.03125 546.042969 1498.566406 C 515.304688 1499.980469 484.507812 1499.421875 453.742188 1500.21875 C 435.746094 1500.660156 429.519531 1494.167969 435.421875 1477.734375 C 437.929688 1470.742188 434.683594 1470.210938 430.316406 1468.910156 C 415.214844 1464.398438 399.609375 1463.011719 384.003906 1461.503906 C 376.714844 1460.796875 369.429688 1459.734375 362.292969 1458.230469 C 357.277344 1457.167969 350.640625 1456.902344 351.140625 1449.230469 C 351.554688 1442.769531 355.386719 1438.902344 361.761719 1436.75 C 370.550781 1433.796875 379.34375 1435.597656 387.984375 1436.128906 C 412.175781 1437.574219 436.425781 1439.34375 458.8125 1450.117188 Z M 458.8125 1450.117188 " fill-opacity="1" fill-rule="nonzero"/><path fill="#5c7357" d="M 930.660156 954.253906 C 923.90625 964.992188 932.550781 977.003906 927.710938 988.15625 C 925.46875 993.289062 926.179688 999.632812 921.960938 1004.179688 C 913.847656 986.328125 897.945312 972.105469 898.183594 950.296875 C 898.300781 941.0625 893.167969 939.734375 885.882812 945.488281 C 883.195312 947.613281 879.773438 951.417969 875.941406 946.523438 C 873.84375 941.210938 875.230469 935.898438 876.175781 930.707031 C 881.101562 903.972656 890.601562 878.359375 895.261719 851.539062 C 895.910156 847.734375 897.621094 844.132812 901.015625 841.714844 C 903.933594 829.144531 907.355469 816.660156 906.886719 803.5625 C 913.019531 763.875 919.128906 724.1875 925.324219 684.53125 C 925.707031 682.109375 926.148438 679.601562 927.152344 677.449219 C 929.6875 671.988281 930.21875 663.433594 939.15625 665.4375 C 946.53125 667.089844 945.882812 674.378906 945.675781 680.164062 C 943.90625 730.148438 941.398438 780.101562 940.21875 830.085938 C 939.214844 871.691406 934.644531 912.914062 930.660156 954.253906 Z M 930.660156 954.253906 " fill-opacity="1" fill-rule="nonzero"/><path fill="#d0d38c" d="M 780.242188 874.378906 C 773.371094 837.671875 762.128906 802.054688 752.660156 766 C 750.210938 756.644531 747.703125 747.320312 745.226562 737.96875 C 751.097656 725.132812 749.296875 710.9375 749.976562 697.75 C 751.980469 658.09375 755.109375 618.613281 760.007812 579.25 C 761.214844 569.660156 759.742188 553.902344 772.070312 554.257812 C 784.519531 554.613281 779.503906 569.835938 780.539062 578.808594 C 785.316406 619.878906 781.394531 661.25 783.8125 702.351562 C 786.820312 753.164062 792.101562 803.796875 795.699219 854.578125 C 797.855469 884.792969 802.042969 914.949219 800.832031 945.371094 C 790.480469 942.125 791.15625 932.152344 788.058594 924.449219 C 786.203125 913.355469 781.925781 902.96875 778.828125 892.230469 C 777.085938 886.089844 774.960938 879.925781 780.242188 874.378906 Z M 780.242188 874.378906 " fill-opacity="1" fill-rule="nonzero"/><path fill="#abbf6d" d="M 900.984375 841.714844 C 896.5 877.890625 882.429688 911.941406 877.328125 947.996094 C 879.304688 965.050781 874.375 980.011719 863.609375 993.203125 C 853.960938 994.855469 849.804688 987.742188 845.023438 981.515625 C 831.925781 964.492188 832.574219 943.808594 829.390625 923.773438 C 829.007812 943.570312 818.414062 957.558594 804.195312 969.566406 C 801.425781 967.824219 799.152344 965.90625 801.484375 962.308594 C 810.007812 959.800781 806.351562 952.570312 806.558594 947.523438 C 808.089844 912.707031 809.035156 877.859375 810.273438 843.011719 C 810.449219 837.640625 810.097656 832.152344 812.78125 827.136719 C 817.738281 824.097656 813.8125 817.488281 818.828125 813.445312 C 823.902344 821.117188 820.6875 830.53125 824.582031 838.171875 C 828.710938 846.285156 832.308594 849.328125 838.800781 840.179688 C 843.34375 833.777344 846.972656 823.359375 856.765625 826.25 C 867.652344 829.496094 862.519531 840.53125 862.636719 848.085938 C 862.78125 859.269531 865.851562 869.746094 867.238281 884.203125 C 873.667969 871.839844 871.425781 861.246094 874.582031 851.894531 C 875.171875 850.121094 874.40625 847.9375 874.820312 846.050781 C 876.410156 838.554688 876.027344 828.347656 884.761719 826.488281 C 894.703125 824.421875 897.5625 834.394531 900.984375 841.714844 Z M 900.984375 841.714844 " fill-opacity="1" fill-rule="nonzero"/><path fill="#8f9c5f" d="M 467.636719 1190.128906 C 489.167969 1214.355469 510.703125 1238.582031 533.566406 1264.3125 C 534.511719 1256.726562 531.886719 1252.125 530.175781 1247.316406 C 529.140625 1244.394531 525.308594 1241.03125 529.496094 1238.316406 C 532.710938 1236.21875 536.546875 1238.609375 538.9375 1240.707031 C 547.371094 1248.140625 555.335938 1256.136719 563.539062 1263.867188 C 574.71875 1274.371094 576.84375 1274.105469 583.125 1260.945312 C 585.457031 1256.078125 589.261719 1253.835938 593.714844 1255.546875 C 606.371094 1260.414062 608.289062 1250.296875 607.699219 1243.539062 C 606.695312 1232.117188 610.765625 1221.378906 609.644531 1210.195312 C 621.800781 1213.941406 623.867188 1225.597656 628.230469 1234.953125 C 641.09375 1262.421875 653.128906 1290.277344 666.90625 1317.304688 C 668.558594 1321.113281 671.09375 1324.652344 670.621094 1329.136719 C 664.691406 1351.089844 670.0625 1371.773438 678.824219 1392.339844 C 666.699219 1385.320312 661.890625 1373.191406 653.570312 1364.074219 C 640.207031 1353.214844 633.984375 1337.488281 625.839844 1323.117188 C 620.296875 1313.320312 615.871094 1302.90625 609.792969 1293.375 C 605.191406 1286.175781 603.597656 1275.433594 593.953125 1291.898438 C 589.558594 1299.394531 578.199219 1303.792969 575.015625 1315.0625 C 573.390625 1320.847656 567.785156 1318.074219 564.335938 1314.769531 C 558.996094 1309.664062 555.042969 1303.378906 550.058594 1297.976562 C 538.757812 1285.734375 527.695312 1272.867188 508.933594 1272.601562 C 488.375 1247.257812 472.738281 1218.191406 449.875 1194.585938 C 438.015625 1182.339844 426.039062 1170.214844 414.09375 1158.058594 C 416.011719 1149.558594 420.996094 1152.183594 425.953125 1154.8125 C 439.875 1166.585938 453.742188 1178.355469 467.636719 1190.128906 Z M 467.636719 1190.128906 " fill-opacity="1" fill-rule="nonzero"/><g clip-path="url(#854efe7652)"><path fill="#2b4456" d="M 1202.117188 1423.058594 C 1227.902344 1398.417969 1252.238281 1372.160156 1282.121094 1352.152344 C 1284.15625 1350.796875 1286.015625 1349.113281 1288.226562 1348.140625 C 1294.214844 1345.542969 1300.144531 1345.660156 1303.683594 1351.917969 C 1307.046875 1357.878906 1301.855469 1360.917969 1297.933594 1363.632812 C 1281.796875 1374.785156 1265.894531 1386.027344 1256.457031 1404.085938 C 1254.039062 1408.6875 1249.375 1412.257812 1257.3125 1416.949219 C 1263.359375 1420.519531 1262.328125 1428.074219 1258.90625 1432.824219 C 1252.945312 1441.085938 1246.664062 1450.027344 1238.375 1455.457031 C 1228.84375 1461.683594 1222.5625 1469.324219 1217.339844 1480.066406 C 1227.429688 1483.222656 1238.667969 1482.632812 1251.5 1491.898438 C 1195.863281 1494.316406 1144.476562 1496.207031 1092.96875 1493.695312 C 1090.519531 1491.1875 1085.238281 1494.347656 1084.207031 1490.15625 C 1083.234375 1486.261719 1087.214844 1484.460938 1089.871094 1482.574219 C 1106.125 1470.976562 1122.617188 1459.675781 1139.519531 1449.054688 C 1147.367188 1444.097656 1155.921875 1441.441406 1165.480469 1440.289062 C 1179.195312 1438.578125 1189.582031 1428.164062 1202.117188 1423.058594 Z M 1202.117188 1423.058594 " fill-opacity="1" fill-rule="nonzero"/></g><path fill="#1e3447" d="M 670.621094 1329.136719 C 667.113281 1327.070312 664.78125 1324.328125 665.222656 1319.960938 C 662.6875 1312.113281 659.648438 1304.382812 657.140625 1296.53125 C 655.164062 1290.335938 654.542969 1283.3125 661.003906 1279.269531 C 667.378906 1275.289062 672.039062 1280.480469 676.316406 1284.375 C 693.335938 1299.808594 702.984375 1320.402344 714.753906 1339.523438 C 727.554688 1360.296875 742.039062 1379.890625 756.023438 1400.101562 C 755.699219 1391.691406 752.128906 1384.375 750.125 1376.644531 C 748.03125 1368.675781 747.054688 1360.53125 759.210938 1360 C 763.871094 1362.746094 765.40625 1367.761719 768.058594 1371.980469 C 775.050781 1384.257812 783.546875 1395.644531 789.035156 1408.746094 C 797.175781 1427.21875 808.03125 1443.949219 820.921875 1459.410156 C 826.558594 1466.195312 831.925781 1473.191406 835.585938 1481.246094 C 840.597656 1492.25 838.828125 1494.90625 827.03125 1495.46875 C 823.222656 1495.644531 819.210938 1494.226562 815.703125 1496.824219 C 810.773438 1496.796875 805.847656 1496.765625 800.921875 1496.734375 C 777.234375 1497.917969 773.191406 1476.9375 762.25 1463.1875 C 741.539062 1437.132812 720.300781 1411.492188 703.21875 1382.78125 C 692.539062 1364.8125 681.507812 1347.019531 670.621094 1329.136719 Z M 670.621094 1329.136719 " fill-opacity="1" fill-rule="nonzero"/><path fill="#344c53" d="M 508.167969 1305.324219 C 484.714844 1307.507812 463.003906 1299.867188 441.144531 1293.285156 C 434.683594 1291.339844 428.519531 1287.414062 422.824219 1294.46875 C 395.507812 1280.332031 369.933594 1263.21875 342.4375 1249.234375 C 300.933594 1228.105469 257.890625 1211.375 213.703125 1197.183594 C 205.382812 1194.496094 193.433594 1192.078125 195.175781 1182.105469 C 197.210938 1170.539062 210.160156 1174.609375 217.921875 1175.761719 C 246.003906 1179.890625 273.085938 1188.625 300.136719 1197.09375 C 337.542969 1208.808594 372.203125 1226.957031 407.21875 1243.980469 C 442.679688 1261.210938 476.191406 1282.101562 508.167969 1305.324219 Z M 508.167969 1305.324219 " fill-opacity="1" fill-rule="nonzero"/><path fill="#79bccc" d="M 1117.070312 1131.765625 C 1116.390625 1126.042969 1117.75 1118.457031 1111.257812 1116.214844 C 1104.179688 1113.765625 1099.988281 1121.144531 1096.332031 1125.511719 C 1085.832031 1138.050781 1080.785156 1153.691406 1074.355469 1168.503906 C 1061.933594 1197.09375 1051.90625 1226.691406 1036.980469 1254.191406 C 1035.503906 1256.875 1033.085938 1260.089844 1035.859375 1265.726562 C 1041.640625 1260.210938 1046.980469 1255.074219 1052.378906 1249.96875 C 1055.886719 1246.636719 1059.960938 1244.394531 1063.851562 1248.703125 C 1068.425781 1253.71875 1063.46875 1257.199219 1060.285156 1259.414062 C 1044.914062 1270.066406 1030.195312 1281.011719 1021.050781 1298.125 C 1005.648438 1326.894531 996.09375 1357.878906 985.648438 1388.828125 C 993.878906 1382.101562 1002.257812 1375.492188 1010.28125 1368.527344 C 1013.378906 1365.84375 1016.832031 1364.488281 1020.578125 1363.246094 C 1023.46875 1362.304688 1026.710938 1360.796875 1028.484375 1363.925781 C 1030.871094 1368.117188 1026.710938 1370.179688 1024.027344 1371.746094 C 1018.128906 1375.226562 1011.992188 1378.414062 1005.738281 1381.15625 C 993.9375 1386.320312 985.648438 1394.644531 980.367188 1406.414062 C 972.640625 1423.738281 962.078125 1439.757812 957.242188 1458.378906 C 955.882812 1472.777344 944.4375 1478.945312 934.203125 1485.582031 C 930.070312 1488.238281 925.914062 1485.230469 928.09375 1480.035156 C 932.84375 1468.703125 935.058594 1456.902344 937.152344 1444.921875 C 938.480469 1437.191406 949.484375 1439.464844 951.960938 1432.265625 C 964.292969 1413.054688 971.8125 1391.664062 978.273438 1370.121094 C 999.394531 1299.484375 1029.808594 1232.503906 1057.066406 1164.253906 C 1061.433594 1153.304688 1066.359375 1142.742188 1072.703125 1132.738281 C 1080.550781 1120.40625 1080.609375 1105.710938 1083.707031 1091.960938 C 1102.320312 1066.378906 1120.640625 1040.589844 1139.785156 1015.421875 C 1144.59375 1009.105469 1147.574219 1002.230469 1150.996094 995.386719 C 1154.683594 999.988281 1154.976562 1004.945312 1153.296875 1010.523438 C 1141.113281 1050.976562 1129.105469 1091.371094 1117.070312 1131.765625 Z M 1117.070312 1131.765625 " fill-opacity="1" fill-rule="nonzero"/><path fill="#3a575f" d="M 1202.117188 1423.058594 C 1190.140625 1433.855469 1178.902344 1445.160156 1160.433594 1444.363281 C 1151.734375 1443.976562 1144.003906 1450.292969 1136.65625 1455.101562 C 1121.582031 1465.015625 1107.304688 1476.257812 1091.757812 1485.316406 C 1081.996094 1491.011719 1091.878906 1491.101562 1092.96875 1493.695312 C 1061.523438 1495.644531 1030.074219 1495.46875 998.628906 1493.933594 C 1013.613281 1487.324219 1025.53125 1476.109375 1037.125 1465.3125 C 1059.8125 1444.183594 1087.394531 1428.839844 1107.453125 1404.734375 C 1108.28125 1403.730469 1110.050781 1403.523438 1111.40625 1402.964844 C 1119.402344 1401.191406 1125.390625 1395.027344 1133.53125 1393.226562 C 1146.332031 1390.363281 1154.417969 1394.644531 1159.519531 1408.273438 C 1158.488281 1411.253906 1157.660156 1414 1162.648438 1413.703125 C 1168.519531 1413.378906 1174.359375 1413.203125 1180.257812 1413.351562 C 1184.09375 1413.4375 1187.484375 1414.558594 1190.230469 1417.332031 C 1192.945312 1421.820312 1196.570312 1424.414062 1202.117188 1423.058594 Z M 1202.117188 1423.058594 " fill-opacity="1" fill-rule="nonzero"/><path fill="#406561" d="M 815.761719 1496.855469 C 816.113281 1496.5 816.4375 1496.144531 816.792969 1495.792969 C 822.074219 1490.984375 832.929688 1498.359375 834.609375 1490.480469 C 836.144531 1483.222656 829.09375 1476.140625 824.257812 1470.121094 C 811.394531 1454.070312 798.886719 1437.898438 789.566406 1419.398438 C 787.734375 1415.800781 786.203125 1412.433594 786.082031 1408.453125 C 784.992188 1405.796875 786.585938 1404.734375 788.710938 1404.027344 C 798.945312 1405.648438 802.605469 1415.003906 807.941406 1421.699219 C 811.691406 1426.421875 812.515625 1421.671875 814.699219 1421.492188 C 825.554688 1419.871094 824.789062 1411.964844 822.871094 1404.761719 C 818.003906 1386.351562 816.910156 1367.203125 811.570312 1348.878906 C 809.917969 1343.242188 808.414062 1337.515625 809.242188 1331.617188 C 809.773438 1327.898438 809.800781 1323.234375 814.90625 1322.734375 C 818.652344 1322.378906 822.398438 1325.125 822.722656 1328.222656 C 824.992188 1349.230469 839.832031 1353.714844 857.089844 1355.367188 C 856.058594 1376.378906 862.722656 1395.527344 871.367188 1414.207031 C 872.105469 1415.800781 871.898438 1417.835938 874.878906 1417.746094 C 884.554688 1417.480469 884.730469 1417.65625 882.664062 1427.308594 C 878.742188 1445.394531 874.699219 1463.480469 870.453125 1481.511719 C 869.421875 1485.847656 867.414062 1489.949219 871.425781 1493.757812 C 872.195312 1494.199219 872.488281 1494.730469 872.371094 1495.347656 C 872.253906 1496 872.074219 1496.324219 871.867188 1496.324219 C 853.167969 1496.472656 834.464844 1496.675781 815.761719 1496.855469 Z M 815.761719 1496.855469 " fill-opacity="1" fill-rule="nonzero"/><path fill="#97b06e" d="M 1052.082031 1072.78125 C 1026.269531 1097.007812 1000.488281 1121.230469 974.675781 1145.457031 C 995.179688 1095.117188 1020.519531 1046.992188 1043.378906 997.746094 C 1056.742188 968.976562 1070.460938 940.296875 1089.722656 914.773438 C 1092.675781 910.847656 1095.328125 906.597656 1098.78125 903.207031 C 1102.292969 899.753906 1105.386719 892.523438 1111.671875 896.921875 C 1116.714844 900.433594 1114.886719 907.101562 1112.910156 911.96875 C 1099.222656 945.992188 1087.71875 980.867188 1071.816406 1014.035156 C 1063.617188 1031.148438 1057.304688 1049.148438 1050.078125 1066.734375 C 1049.015625 1069.386719 1049.367188 1071.425781 1052.082031 1072.78125 Z M 1052.082031 1072.78125 " fill-opacity="1" fill-rule="nonzero"/><path fill="#3a7d9d" d="M 871.867188 1496.292969 C 871.75 1495.4375 871.605469 1494.582031 871.425781 1493.726562 C 873.757812 1488.976562 873.078125 1481.71875 882.546875 1483.960938 C 888.09375 1485.257812 890.511719 1479.59375 892.371094 1474.988281 C 909.066406 1434.0625 925.734375 1393.109375 942.433594 1352.183594 C 946.886719 1354.691406 950.457031 1358.554688 951.046875 1363.367188 C 953.464844 1383.488281 957.476562 1403.496094 957.359375 1423.882812 C 957.328125 1427.601562 956.472656 1431.585938 954.351562 1434.980469 C 950.632812 1437.398438 953.703125 1448.433594 943.289062 1442.976562 C 939.6875 1441.085938 939.894531 1446.691406 940.011719 1449.082031 C 940.632812 1461.625 936.386719 1472.71875 928.125 1486.230469 C 941.722656 1477.585938 949.601562 1468.113281 957.269531 1458.464844 C 976.742188 1446.101562 992.582031 1429.253906 1010.695312 1415.210938 C 1015.855469 1411.195312 1021.316406 1408.1875 1028.097656 1408.394531 C 1011.726562 1442.265625 985.175781 1466.582031 954.230469 1486.675781 C 950.988281 1488.769531 947.121094 1490.007812 945.5 1493.992188 C 920.867188 1492.28125 896.5 1499.214844 871.867188 1496.292969 Z M 871.867188 1496.292969 " fill-opacity="1" fill-rule="nonzero"/><path fill="#3a575f" d="M 1190.257812 1417.304688 C 1186.277344 1417.1875 1182.292969 1417.097656 1178.3125 1416.980469 C 1183.003906 1399.453125 1195.746094 1386.46875 1202.707031 1372.601562 C 1190.671875 1384.433594 1175.039062 1395.351562 1161.171875 1408.332031 C 1160.109375 1409.335938 1158.515625 1408.925781 1157.574219 1407.476562 C 1147.394531 1391.335938 1134.296875 1395.085938 1120.699219 1401.988281 C 1116.097656 1404.320312 1116.066406 1404.203125 1111.40625 1402.933594 C 1130.699219 1386.851562 1145.804688 1366.609375 1164.003906 1349.46875 C 1175.980469 1348.289062 1183.089844 1338.992188 1191.851562 1332.558594 C 1205.894531 1322.261719 1214.890625 1322.96875 1224.949219 1335.984375 C 1234.625 1326.273438 1240.675781 1312.347656 1256.871094 1309.457031 C 1239.257812 1341.175781 1191.203125 1406.503906 1190.257812 1417.304688 Z M 1190.257812 1417.304688 " fill-opacity="1" fill-rule="nonzero"/><path fill="#617861" d="M 801.484375 962.308594 C 802.339844 964.402344 803.222656 966.527344 804.078125 968.621094 C 810.449219 978.773438 809.800781 990.042969 809.386719 1001.257812 C 797.234375 1005.859375 784.519531 1008.839844 772.160156 1012.851562 C 763.222656 1015.746094 755.140625 1023.003906 744.992188 1020.496094 C 744.105469 1021.675781 744.136719 1022.53125 744.488281 1023.5625 C 746.730469 1029.9375 754.609375 1037.195312 745.226562 1042.683594 C 736.554688 1047.730469 732.601562 1038.582031 728.058594 1033.300781 C 723.605469 1028.136719 719.828125 1022.441406 715.402344 1017.21875 C 710.683594 1011.644531 705.902344 1011.082031 700.5625 1016.097656 C 696.226562 1010.90625 694.164062 1004.976562 694.695312 998.1875 C 701.125 997.390625 705.695312 992.109375 712.304688 991.3125 C 717.46875 990.695312 718.765625 985.882812 719.5625 981.371094 C 720.242188 977.503906 720.179688 973.519531 721.214844 969.714844 C 723.21875 962.457031 727.761719 957.378906 735.167969 956.113281 C 743.8125 954.605469 748.679688 960.214844 752.511719 967.027344 C 755.789062 972.84375 757.824219 983.050781 765.199219 981.222656 C 773.960938 979.066406 769.769531 968.652344 770.035156 961.867188 C 770.480469 950.503906 772.808594 939.46875 773.839844 928.226562 C 774.3125 923.121094 776.496094 918.460938 782.160156 917.308594 C 787.734375 916.160156 789.625 920.878906 791.984375 924.539062 C 794.902344 931.472656 797.855469 938.4375 800.773438 945.371094 C 801.039062 951.007812 801.246094 956.644531 801.484375 962.308594 Z M 801.484375 962.308594 " fill-opacity="1" fill-rule="nonzero"/><path fill="#ccc663" d="M 656.785156 924.835938 C 660.679688 939.527344 653.335938 952.480469 650.386719 966.113281 C 638.910156 933.894531 627.523438 901.613281 615.929688 869.421875 C 593.714844 807.632812 571.386719 745.90625 549.140625 684.148438 C 547.519531 679.660156 546.222656 675.058594 544.214844 668.683594 C 551.972656 671.84375 553.390625 677.683594 555.925781 682.433594 C 594.511719 755.464844 624.25 832.152344 650.445312 910.316406 C 652.15625 915.332031 652.628906 920.878906 656.785156 924.835938 Z M 656.785156 924.835938 " fill-opacity="1" fill-rule="nonzero"/><path fill="#657d62" d="M 508.964844 1272.632812 C 514.097656 1266.523438 518.757812 1267.527344 525.308594 1271.628906 C 539.199219 1280.363281 550.765625 1291.132812 560.144531 1304.527344 C 563.066406 1308.6875 567.167969 1312.054688 571.945312 1317.070312 C 575.25 1304.734375 573.007812 1289.183594 591.886719 1291.871094 C 593.628906 1292.105469 593.597656 1288.917969 592.859375 1287.03125 C 590.324219 1280.511719 594.570312 1277.914062 599.527344 1276.46875 C 605.515625 1274.757812 606.753906 1280.125 608.789062 1283.785156 C 619.882812 1303.878906 631.300781 1323.796875 641.652344 1344.246094 C 645.195312 1351.207031 652.421875 1355.8125 653.570312 1364.074219 C 639.796875 1366.050781 632.65625 1357.757812 626.226562 1347.285156 C 618.054688 1334.007812 608.910156 1321.347656 600.441406 1308.246094 C 595.28125 1300.28125 591.269531 1302.316406 588.082031 1309.457031 C 583.332031 1320.050781 581.296875 1330.613281 588.703125 1341.265625 C 590.945312 1344.480469 595.015625 1348.699219 591.269531 1353.066406 C 588.082031 1356.753906 583.039062 1355.28125 578.699219 1355.101562 C 573.035156 1354.898438 568.230469 1349.585938 562.0625 1352.242188 C 557.433594 1339.847656 543.742188 1334.714844 538.464844 1322.824219 C 535.542969 1308.75 525.1875 1299.070312 517.753906 1287.679688 C 514.570312 1282.839844 511.855469 1277.648438 508.964844 1272.632812 Z M 508.964844 1272.632812 " fill-opacity="1" fill-rule="nonzero"/><path fill="#9da762" d="M 921.78125 1009.902344 C 923.757812 1030.113281 929.867188 1035.457031 949.484375 1033.949219 C 953.082031 1033.683594 956.679688 1033.980469 958.773438 1036.929688 C 965 1045.722656 975.5 1047.964844 983.613281 1053.808594 C 976.121094 1073.222656 970.722656 1093.257812 966.503906 1113.621094 C 962.109375 1110.136719 962.992188 1106.332031 964.761719 1103.5 C 960.160156 1111.996094 955.292969 1122 950.542969 1132.089844 C 947.859375 1137.757812 945.589844 1143.953125 938.332031 1145.546875 C 928.714844 1145.988281 927.238281 1139.46875 926.769531 1132.0625 C 926.089844 1120.699219 927.5625 1109.222656 930.070312 1098.542969 C 934.203125 1081.042969 926 1068.386719 917.710938 1055.226562 C 915.117188 1051.09375 911.367188 1047.730469 910.042969 1042.804688 C 910.160156 1030.46875 909.597656 1017.898438 921.78125 1009.902344 Z M 921.78125 1009.902344 " fill-opacity="1" fill-rule="nonzero"/><path fill="#c7cc8b" d="M 532.917969 986.621094 C 537.816406 994.882812 533.890625 1003.914062 535.277344 1012.5 C 536.105469 1017.664062 533.832031 1023.417969 538.40625 1027.8125 C 540.234375 1035.660156 542.742188 1043.421875 541.238281 1051.65625 C 513.59375 986.679688 470.023438 931.648438 428.046875 872.546875 C 439.726562 874.171875 445.480469 880.78125 450.878906 886.683594 C 478.34375 916.71875 504.804688 947.613281 525.394531 983.023438 C 526.632812 985.144531 527.84375 987.476562 529.671875 988.980469 C 532.679688 991.519531 531.886719 987.59375 532.917969 986.621094 Z M 532.917969 986.621094 " fill-opacity="1" fill-rule="nonzero"/><path fill="#b6bb70" d="M 425.980469 1154.8125 C 421.734375 1154.871094 417.160156 1153.601562 414.121094 1158.054688 C 377.898438 1128.105469 340.726562 1099.515625 301.375 1073.726562 C 292.496094 1067.914062 291.582031 1054.8125 285.976562 1045.578125 C 285.5625 1044.898438 286.683594 1042.566406 287.65625 1041.945312 C 290.785156 1040.027344 293.617188 1041.976562 295.386719 1044.128906 C 302.820312 1053.1875 310.34375 1062.246094 317.039062 1071.867188 C 321.9375 1078.890625 327.894531 1084.023438 335.09375 1088.597656 C 366.746094 1108.78125 399.695312 1127.25 425.980469 1154.8125 Z M 425.980469 1154.8125 " fill-opacity="1" fill-rule="nonzero"/><path fill="#527460" d="M 939.6875 1143.007812 C 949.601562 1130.085938 952.253906 1112.882812 965 1099.101562 C 965.648438 1105.296875 966.0625 1109.457031 966.503906 1113.621094 C 966.238281 1126.1875 965.765625 1138.699219 961.695312 1150.855469 C 960.484375 1154.484375 957.949219 1159.238281 962.90625 1162.660156 C 955.53125 1175.464844 948.183594 1188.242188 939.601562 1203.144531 C 935.46875 1194.113281 937.769531 1188.273438 938.449219 1182.105469 C 939.1875 1175.703125 944.171875 1167.175781 933.613281 1163.308594 C 929.394531 1154.691406 933.820312 1148.613281 939.6875 1143.007812 Z M 939.6875 1143.007812 " fill-opacity="1" fill-rule="nonzero"/><path fill="#344c53" d="M 567.078125 1402.875 C 577.316406 1403.523438 583.921875 1410.105469 590.292969 1417.363281 C 582.328125 1412.878906 572.210938 1414.558594 565.101562 1407.980469 C 567.816406 1407.066406 567.519531 1405 567.078125 1402.875 Z M 567.078125 1402.875 " fill-opacity="1" fill-rule="nonzero"/><path fill="#3d5d60" d="M 700.59375 1016.097656 C 701.183594 1004.445312 705.402344 1000.667969 714.222656 1010.609375 C 721.65625 1019.019531 728.207031 1028.226562 735.316406 1036.929688 C 737.703125 1039.851562 740.417969 1043.804688 744.960938 1040.234375 C 748.765625 1037.253906 746.230469 1034.335938 744.3125 1031.324219 C 741.953125 1027.605469 739.945312 1023.652344 738.058594 1019.640625 C 735.964844 1015.183594 737.734375 1012.46875 742.484375 1013.828125 C 759.0625 1018.605469 772.308594 1009.546875 785.671875 1002.96875 C 793.8125 998.957031 799.976562 997.332031 806.527344 1004.386719 C 813.8125 1011.613281 813.519531 1021.234375 814.195312 1030.351562 C 814.816406 1038.640625 815.996094 1046.84375 817.089844 1055.078125 C 823.84375 1093.113281 824.402344 1131.441406 823.3125 1169.890625 C 823.667969 1198.835938 823.578125 1227.75 823.8125 1256.667969 C 823.933594 1271.480469 821.484375 1286 820.1875 1300.632812 C 819.773438 1305.503906 818.800781 1310.519531 813.105469 1312.4375 C 802.425781 1311.136719 802.425781 1301.992188 801.246094 1294.792969 C 794.699219 1254.308594 788.179688 1213.796875 781.542969 1173.3125 C 778.976562 1157.613281 776.761719 1141.796875 770.332031 1123.269531 C 763.78125 1143.039062 770.214844 1160.417969 765.019531 1176.527344 C 753.695312 1183.550781 747.5 1181.660156 740.507812 1170.300781 C 736.113281 1163.160156 736.582031 1152.863281 727.027344 1148.996094 C 718.441406 1133.773438 720.035156 1116.15625 715.578125 1099.929688 C 710.59375 1081.632812 707.4375 1063.308594 713.957031 1044.308594 C 715.992188 1038.347656 711.066406 1032.445312 706.433594 1027.871094 C 704.488281 1023.949219 702.539062 1020.023438 700.59375 1016.097656 Z M 700.59375 1016.097656 " fill-opacity="1" fill-rule="nonzero"/><path fill="#869467" d="M 792.042969 924.507812 C 782.308594 916.691406 777.675781 918.550781 777.175781 931.503906 C 776.585938 946.109375 773.339844 960.566406 774.34375 975.320312 C 774.667969 980.128906 775.257812 985.824219 769.742188 988.246094 C 763.515625 990.960938 759.859375 985.234375 755.730469 982.285156 C 751.066406 978.980469 751.125 972.753906 748.824219 967.945312 C 746.113281 962.21875 742.335938 957.4375 735.433594 959.210938 C 729.53125 960.714844 724.960938 964.726562 724.429688 971.542969 C 724.132812 975.4375 724.929688 979.570312 724.015625 983.257812 C 722.246094 990.457031 722.039062 1000.164062 709.738281 995.917969 C 704.429688 994.085938 700.476562 1002.289062 694.695312 998.21875 C 703.601562 989.335938 698.382812 978.242188 696.582031 969.625 C 690.09375 938.4375 693.867188 907.867188 697.761719 877.0625 C 698.144531 873.992188 699.03125 871.425781 702.335938 870.304688 C 715.285156 865.878906 718.824219 858.03125 713.574219 845.285156 C 712.660156 843.042969 710.800781 841.152344 710.152344 838.851562 C 708.558594 833.304688 710.769531 829.230469 715.964844 826.929688 C 718.824219 825.660156 721.214844 821 724.785156 824.246094 C 728.617188 827.726562 726.699219 832.242188 725.550781 836.578125 C 723.457031 844.367188 719.855469 851.628906 732.867188 855.433594 C 739.445312 857.351562 735.964844 867.53125 734.636719 874.054688 C 732.984375 882.285156 731.480469 889.867188 738.027344 897.421875 C 743.898438 904.179688 747.085938 903.914062 750.066406 895.828125 C 752.277344 889.867188 753.898438 883.671875 756.464844 877.890625 C 763.488281 862.132812 768.707031 861.453125 780.183594 874.320312 C 779.535156 892.171875 791.335938 907.042969 792.042969 924.507812 Z M 792.042969 924.507812 " fill-opacity="1" fill-rule="nonzero"/><path fill="#527460" d="M 809.832031 1311.050781 C 817.882812 1309.542969 815.140625 1303.082031 815.761719 1298.15625 C 821.160156 1255.3125 817.53125 1212.230469 818.945312 1169.296875 C 825.257812 1172.484375 830.921875 1176.96875 837.886719 1178.976562 C 842.074219 1189.570312 842.988281 1200.695312 843.519531 1212.527344 C 861.898438 1181.101562 875.675781 1148.171875 886.441406 1113.914062 C 888.152344 1108.515625 888.535156 1102.082031 895.234375 1099.632812 C 908.066406 1099.601562 907.917969 1110.875 911.488281 1118.8125 C 928.035156 1111.613281 928.507812 1112.378906 929.511719 1130.554688 C 930.160156 1142.566406 928.949219 1154.632812 930.867188 1166.554688 C 923.878906 1181.425781 926.945312 1197.625 925.292969 1213.117188 C 923.375 1231.027344 924.554688 1249.292969 924.851562 1267.378906 C 925.027344 1277.351562 923.9375 1286.855469 912.550781 1289.066406 C 905.675781 1290.394531 898.242188 1275.199219 899.746094 1264.222656 C 900.070312 1261.863281 901.546875 1259.648438 898.066406 1255.164062 C 888.417969 1271.570312 884.375 1289.183594 877.5625 1305.503906 C 870.660156 1322.085938 866.5 1339.820312 857.058594 1355.367188 C 847.472656 1355.308594 837.265625 1363.128906 828.535156 1352.210938 C 824.789062 1347.519531 820.980469 1343.476562 821.484375 1336.898438 C 821.867188 1331.824219 820.570312 1327.21875 813.929688 1325.035156 C 812.042969 1331.351562 812.308594 1337.28125 814.167969 1343.300781 C 821.101562 1365.636719 823.695312 1388.859375 827.914062 1411.726562 C 830.453125 1425.390625 827 1427.71875 813.105469 1423.085938 C 804.609375 1420.371094 803.460938 1412.433594 800.714844 1405.648438 C 796.347656 1391.929688 797.941406 1376.996094 791.953125 1363.601562 C 789.300781 1351.148438 779.859375 1339.996094 784.726562 1326.097656 C 792.957031 1320.785156 803.8125 1319.960938 809.832031 1311.050781 Z M 809.832031 1311.050781 " fill-opacity="1" fill-rule="nonzero"/><path fill="#5ba7bf" d="M 954.320312 1434.980469 C 951.605469 1407.210938 951.015625 1379.152344 942.433594 1352.210938 C 943.40625 1349.203125 944.351562 1346.191406 945.324219 1343.183594 C 948.980469 1344.214844 952.253906 1347.636719 956.386719 1345.632812 C 967.625 1340.171875 968.980469 1346.042969 967.859375 1355.25 C 966.917969 1363.011719 967.949219 1370.949219 965.648438 1378.589844 C 972.402344 1359.589844 967.980469 1339.289062 971.8125 1320.34375 C 975.558594 1301.8125 970.691406 1286 965.679688 1269.414062 C 984.941406 1224.652344 1014.53125 1186.441406 1042.671875 1147.226562 C 1056.035156 1128.578125 1067.097656 1108.25 1083.707031 1091.992188 C 1089.339844 1111.671875 1079.753906 1127.28125 1071.167969 1143.773438 C 1062.464844 1160.503906 1056.035156 1178.417969 1048.75 1195.855469 C 1026.242188 1249.851562 1003.4375 1303.730469 985.855469 1359.675781 C 977.65625 1385.761719 970.488281 1412.257812 954.320312 1434.980469 Z M 954.320312 1434.980469 " fill-opacity="1" fill-rule="nonzero"/><path fill="#6d8a62" d="M 930.839844 1166.523438 C 921.8125 1164.402344 924.585938 1157.792969 926.117188 1152.507812 C 928.773438 1143.332031 927.300781 1134.066406 927.710938 1124.832031 C 927.828125 1121.96875 928.035156 1118.636719 924.613281 1117.335938 C 921.015625 1115.980469 919.597656 1119.109375 917.742188 1121.289062 C 914.9375 1124.597656 912.136719 1129.316406 907.089844 1126.957031 C 901.988281 1124.566406 906.441406 1120.199219 906.382812 1116.6875 C 906.265625 1109.28125 902.609375 1104 895.378906 1101.519531 C 891.546875 1085.410156 902.046875 1049.414062 912.667969 1042.273438 C 923.167969 1050.207031 925.851562 1063.960938 935.46875 1072.871094 C 938.066406 1075.261719 936.058594 1083.050781 935.558594 1088.300781 C 934.144531 1103.203125 932.433594 1118.105469 930.839844 1133.003906 C 930.132812 1139.527344 932.519531 1143.363281 939.660156 1143.007812 C 937.625 1149.792969 935.617188 1156.582031 933.582031 1163.367188 C 932.699219 1164.402344 931.78125 1165.460938 930.839844 1166.523438 Z M 930.839844 1166.523438 " fill-opacity="1" fill-rule="nonzero"/><path fill="#76b9d0" d="M 965.679688 1269.445312 C 970.605469 1272.101562 973.996094 1275.613281 975.03125 1281.632812 C 980.132812 1311.640625 974.96875 1341.292969 971.726562 1370.949219 C 970.929688 1378.238281 968.835938 1386.054688 960.398438 1393.816406 C 961.992188 1375.996094 963.347656 1360.976562 964.703125 1345.777344 C 957.386719 1349.261719 949.039062 1362.039062 945.292969 1343.183594 C 952.109375 1318.601562 958.894531 1294.023438 965.679688 1269.445312 Z M 965.679688 1269.445312 " fill-opacity="1" fill-rule="nonzero"/><path fill="#385554" d="M 912.726562 1042.273438 C 902.609375 1060.742188 901.515625 1081.871094 895.4375 1101.519531 C 883.933594 1133.625 873.492188 1166.140625 857.414062 1196.414062 C 852.695312 1205.328125 846.351562 1213.382812 840.863281 1223.472656 C 839.273438 1208.367188 837.679688 1193.230469 836.054688 1178.121094 C 829.09375 1170.15625 829.273438 1160.152344 828.828125 1150.589844 C 827.648438 1123.828125 828.652344 1097.183594 834.199219 1070.894531 C 841.925781 1044.070312 850.335938 1017.425781 862.722656 992.257812 C 867.589844 977.503906 872.460938 962.75 877.328125 947.996094 C 884.257812 944.015625 888.921875 932.386719 897.003906 935.632812 C 904.554688 938.671875 903.050781 950.359375 903.757812 958.175781 C 904.613281 967.5 906.707031 974.554688 913.996094 981.25 C 919.953125 986.710938 922.726562 995.355469 921.929688 1004.207031 C 921.871094 1006.125 921.839844 1008.015625 921.78125 1009.902344 C 917.683594 1020.378906 913.226562 1030.792969 912.726562 1042.273438 Z M 912.726562 1042.273438 " fill-opacity="1" fill-rule="nonzero"/><path fill="#2b4858" d="M 785.996094 1326.070312 C 785.789062 1339.554688 794.285156 1350.941406 795.140625 1364.160156 C 795.730469 1369.679688 792.074219 1367.644531 789.917969 1366.730469 C 784.964844 1364.632812 781.71875 1360.238281 777.792969 1356.726562 C 773.929688 1353.273438 770.773438 1347.371094 765.140625 1348.199219 C 757.824219 1349.289062 763.28125 1357.671875 759.476562 1361.328125 C 750.921875 1363.601562 750.773438 1368.765625 753.664062 1375.996094 C 757.792969 1386.320312 762.957031 1396.5 762.367188 1409.542969 C 753.957031 1406.238281 749.269531 1400.25 745.226562 1393.992188 C 726.4375 1364.753906 707.761719 1335.480469 689.441406 1305.945312 C 684.457031 1297.917969 678.320312 1291.28125 671.449219 1285.023438 C 668.851562 1282.664062 666.550781 1279.390625 662.894531 1280.953125 C 658.4375 1282.871094 658.941406 1287.589844 659.679688 1291.339844 C 661.535156 1300.871094 666.816406 1309.722656 665.253906 1319.960938 C 649.5 1296 640.238281 1268.824219 627.699219 1243.300781 C 622.125 1232 617.40625 1220.285156 609.675781 1210.195312 C 603.511719 1197.800781 597.316406 1185.410156 591.121094 1173.015625 C 591.386719 1168.117188 590.707031 1162.925781 592.125 1158.382812 C 593.746094 1153.1875 592.832031 1145.101562 600.265625 1144.1875 C 607.199219 1143.332031 609.734375 1149.882812 612.390625 1155.222656 C 621.59375 1173.695312 630.710938 1192.195312 640.148438 1210.550781 C 645.519531 1221.023438 651.210938 1231.320312 657.230469 1241.441406 C 659.972656 1246.046875 663.835938 1251.386719 670.148438 1247.519531 C 677.082031 1243.273438 670.917969 1239.140625 668.703125 1235.363281 C 663.511719 1226.484375 657.464844 1218.042969 652.863281 1208.898438 C 649.5 1202.199219 641.773438 1195.707031 649.617188 1186.648438 C 651.890625 1184.050781 648.378906 1180.246094 646.964844 1177.175781 C 644.898438 1172.78125 642.449219 1168.53125 640.5625 1164.074219 C 637.757812 1157.523438 636.195312 1148.496094 640 1144.394531 C 643.867188 1140.234375 652.304688 1140.558594 658.496094 1136.28125 C 662.570312 1133.449219 662.746094 1141.769531 662.097656 1144.628906 C 653.867188 1180.746094 675.636719 1207.15625 690.949219 1235.660156 C 694.105469 1241.53125 697.910156 1246.339844 705.519531 1246.195312 C 713.398438 1246.046875 715.109375 1253.835938 719.589844 1257.9375 C 724.8125 1262.71875 730.269531 1265.757812 736.761719 1262.835938 C 743.191406 1259.972656 747.824219 1254.988281 747.941406 1246.960938 C 748.117188 1237.578125 747.675781 1228.34375 745.019531 1219.3125 C 738.707031 1197.859375 736.464844 1175.289062 727.292969 1154.632812 C 727.203125 1152.746094 727.144531 1150.828125 727.054688 1148.9375 C 728.941406 1141.53125 732.277344 1142.535156 735.226562 1147.996094 C 738.234375 1153.542969 741.066406 1159.355469 742.71875 1165.375 C 745.609375 1175.9375 752.601562 1179.035156 762.484375 1178.296875 C 767.085938 1181.21875 768.769531 1185.941406 769.179688 1190.839844 C 772.78125 1231.914062 779.859375 1272.484375 787.265625 1312.96875 C 788.03125 1317.453125 787.410156 1321.820312 785.996094 1326.070312 Z M 785.996094 1326.070312 " fill-opacity="1" fill-rule="nonzero"/><path fill="#8caa68" d="M 862.722656 992.257812 C 860.835938 1009.636719 854.050781 1025.570312 847.679688 1041.59375 C 844.140625 1050.472656 840.128906 1059.148438 839.035156 1068.796875 C 831.425781 1068.503906 833.460938 1062.21875 832.574219 1058 C 831.601562 1053.335938 833.164062 1048.171875 829.359375 1043.214844 C 822.722656 1044.984375 824.078125 1059.859375 812.957031 1054.222656 C 808.207031 1037.933594 809.773438 1020.851562 806.496094 1004.386719 C 806.941406 992.375 802.101562 980.75 804.050781 968.621094 C 811.160156 952.6875 828.59375 941.269531 824.730469 920.496094 C 824.019531 916.777344 824.730469 911.554688 829.863281 911.617188 C 834.757812 911.675781 832.8125 916.75 833.402344 919.816406 C 837.265625 940.179688 834.492188 962.101562 848.652344 980.070312 C 852.695312 985.234375 856.441406 990.015625 862.722656 992.257812 Z M 862.722656 992.257812 " fill-opacity="1" fill-rule="nonzero"/><path fill="#406561" d="M 759.476562 1361.359375 C 758.765625 1359.558594 757.792969 1357.816406 757.441406 1355.960938 C 756.523438 1351.207031 755.285156 1345.808594 760.035156 1342.679688 C 765.109375 1339.347656 769.269531 1343.566406 772.75 1346.546875 C 778.238281 1351.238281 783.015625 1356.753906 788.296875 1361.683594 C 790.066406 1363.335938 791.480469 1367.261719 795.140625 1364.160156 C 803.960938 1376.820312 800.039062 1392.074219 803.695312 1405.765625 C 790.539062 1404.292969 785.847656 1392.429688 777.734375 1384.757812 C 774.726562 1379.742188 769.296875 1377.292969 765.492188 1373.132812 C 761.894531 1370.003906 760.152344 1365.960938 759.476562 1361.359375 Z M 759.476562 1361.359375 " fill-opacity="1" fill-rule="nonzero"/><path fill="#2b4858" d="M 765.492188 1373.132812 C 771.660156 1374.015625 777.234375 1375.875 780.09375 1382.132812 C 779.800781 1391.191406 791.746094 1395.4375 789.179688 1405.382812 C 788.148438 1406.414062 787.117188 1407.417969 786.054688 1408.453125 C 779.210938 1396.679688 772.367188 1384.90625 765.492188 1373.132812 Z M 765.492188 1373.132812 " fill-opacity="1" fill-rule="nonzero"/><path fill="#3a575f" d="M 1157.574219 1407.507812 C 1172.441406 1390.570312 1192.382812 1379.476562 1208.875 1363.898438 C 1201.5 1383.3125 1191.46875 1401.046875 1178.3125 1417.007812 C 1168.902344 1416.742188 1159.519531 1416.597656 1150.109375 1419.339844 C 1149.636719 1413.027344 1154.625 1410.929688 1157.574219 1407.507812 Z M 1157.574219 1407.507812 " fill-opacity="1" fill-rule="nonzero"/><path fill="#1e3447" d="M 789.179688 1405.382812 C 785.699219 1397.800781 776.203125 1392.578125 780.09375 1382.132812 C 787.234375 1390.71875 794.757812 1398.980469 803.695312 1405.765625 C 806.824219 1411.519531 809.980469 1417.304688 813.136719 1423.058594 C 813.253906 1425.359375 813.339844 1427.691406 813.578125 1432.175781 C 804.667969 1422.378906 796.941406 1413.882812 789.179688 1405.382812 Z M 789.179688 1405.382812 " fill-opacity="1" fill-rule="nonzero"/><path fill="#749d75" d="M 785.996094 1326.070312 C 776.644531 1285.9375 770.359375 1245.277344 765.550781 1204.382812 C 764.519531 1195.707031 763.488281 1187.03125 762.425781 1178.328125 C 762.394531 1164.136719 762.042969 1149.914062 762.542969 1135.71875 C 762.777344 1129.050781 758.886719 1118.28125 769.09375 1117.484375 C 778.828125 1116.71875 777.675781 1128.046875 778.855469 1134.480469 C 784.609375 1165.640625 788.503906 1197.183594 795.023438 1228.164062 C 800.832031 1255.664062 799.949219 1284.316406 809.800781 1311.050781 C 809.566406 1328.222656 796.703125 1325.417969 785.996094 1326.070312 Z M 785.996094 1326.070312 " fill-opacity="1" fill-rule="nonzero"/><path fill="#6b9066" d="M 812.988281 1054.191406 C 820.125 1053.925781 821.101562 1048.882812 822.101562 1043.246094 C 822.753906 1039.644531 823.726562 1034.480469 828.679688 1035.21875 C 833.222656 1035.867188 835.4375 1040.117188 836.234375 1044.839844 C 837.621094 1052.777344 833.550781 1061.363281 839.066406 1068.796875 C 832.488281 1105.089844 831.691406 1141.53125 836.054688 1178.121094 C 824.667969 1186.207031 822.367188 1176.644531 818.945312 1169.269531 C 819.742188 1130.792969 817.648438 1092.433594 812.988281 1054.191406 Z M 812.988281 1054.191406 " fill-opacity="1" fill-rule="nonzero"/></svg>